<svg xmlns="http://www.w3.org/2000/svg">

<symbol id="logo" width="130" height="60" viewBox="0 0 130 60" fill="none">
<g clip-path="url(#clip0_179350_1063)">
<path d="M4.95672 0H0V35.7986H4.95672V22.5177C4.95672 20.2709 5.51557 18.4984 6.63326 17.2502C7.75095 16.002 9.2817 15.353 11.1769 15.353C12.8049 15.353 14.1655 15.9521 15.2589 17.1004C16.3523 18.2738 16.9112 19.7466 16.9112 21.5191V35.8236H21.8922V21.5191C21.8922 18.2238 20.9932 15.6276 19.1951 13.6804C17.3971 11.7332 15.0402 10.7596 12.1731 10.7596C11.347 10.7596 10.5209 10.8594 9.71906 11.0841C8.89294 11.3088 8.2369 11.5584 7.70235 11.833C7.16781 12.1076 6.65756 12.4072 6.1959 12.7567C5.73424 13.1062 5.41838 13.3558 5.27259 13.5056C5.1268 13.6554 5.00532 13.7552 4.95672 13.8301V0Z" fill="#F0145A"/>
<path d="M32.9726 0H27.8628V35.7689H32.9726V0Z" fill="white"/>
<path d="M63.1114 25.2935L63.3669 22.7386C63.3669 19.315 62.2428 16.4535 59.9433 14.1541C57.6439 11.8546 54.7824 10.7305 51.3588 10.7305C47.9352 10.7305 44.9715 11.9568 42.5188 14.4096C40.0661 16.8623 38.8397 19.7749 38.8397 23.2496C38.8397 26.8265 40.1172 29.8924 42.621 32.4473C45.1248 35.0022 48.1396 36.2797 51.6143 36.2797C52.9429 36.2797 54.1692 36.0753 55.3956 35.7176C56.6219 35.3088 57.6439 34.9 58.3593 34.4912C59.1258 34.0313 59.8922 33.5204 60.5565 32.9583C61.2208 32.3962 61.6807 31.9874 61.8851 31.7319C62.0895 31.4764 62.2428 31.3231 62.345 31.1698L59.0236 27.8484L58.2571 28.8193C57.7461 29.4325 56.8774 30.0457 55.6511 30.7099C54.3736 31.3742 53.0451 31.6808 51.6143 31.6808C49.6215 31.6808 47.9352 31.0676 46.5045 29.7902C45.0737 28.5127 44.205 27.0309 43.9495 25.2935H63.1114ZM51.3588 15.0738C53.2494 15.0738 54.7824 15.6359 56.0599 16.709C57.2862 17.8331 58.0527 19.2128 58.3593 20.9501H44.1539C44.6138 19.2128 45.4314 17.8331 46.7089 16.709C47.9352 15.6359 49.5193 15.0738 51.3588 15.0738Z" fill="white"/>
<path d="M86.9429 34.2868C86.9429 36.5351 86.2786 38.3747 84.8989 39.8054C83.5704 41.1851 81.8841 41.9005 79.7891 41.9005C78.8693 41.9005 77.9496 41.7472 77.0809 41.4917C76.2122 41.2362 75.5479 40.9296 74.9859 40.5719C74.4238 40.2142 73.9128 39.8565 73.4018 39.3967C72.9419 38.9368 72.6353 38.6302 72.482 38.4769C72.3287 38.3236 72.2265 38.1703 72.1244 38.0681L68.803 41.3895L69.2117 41.9005C69.4672 42.2582 69.9271 42.718 70.5403 43.229C71.1535 43.6889 71.8689 44.1999 72.6864 44.7109C73.504 45.1708 74.526 45.5796 75.8034 45.9372C77.0809 46.2949 78.4094 46.4993 79.7891 46.4993C83.2638 46.4993 86.1253 45.3241 88.5269 42.9735C90.8774 40.5719 92.0527 37.7104 92.0527 34.2357V11.2415H86.9429V13.7964L86.0742 13.0299C85.5121 12.5189 84.6435 12.0079 83.4171 11.4969C82.1907 10.986 80.8622 10.7305 79.5336 10.7305C76.4166 10.7305 73.7595 11.9057 71.4601 14.3074C69.1606 16.709 68.0365 19.5705 68.0365 22.9941C68.0365 26.4177 69.1606 29.2792 71.4601 31.6808C73.7595 34.0824 76.4166 35.2577 79.5336 35.2577C80.4023 35.2577 81.2199 35.1555 82.0885 34.9511C82.9061 34.6956 83.5704 34.4401 84.1325 34.1846C84.6945 33.9291 85.2055 33.6225 85.6654 33.2648C86.1253 32.9072 86.483 32.6517 86.5852 32.5495L86.9429 32.1918V34.2868ZM73.1463 22.9941C73.1463 20.8479 73.8106 19.0595 75.1903 17.5776C76.5699 16.0958 78.2051 15.3293 80.0446 15.3293C81.8841 15.3293 83.5193 16.0958 84.8989 17.5776C86.2275 19.0595 86.9429 20.8479 86.9429 22.9941C86.9429 25.1402 86.2275 26.9287 84.8989 28.4105C83.5193 29.8924 81.8841 30.6588 80.0446 30.6588C78.2051 30.6588 76.5699 29.8924 75.1903 28.4105C73.8106 26.9287 73.1463 25.1402 73.1463 22.9941Z" fill="white"/>
<path d="M118.724 35.7687V19.9282C118.724 17.3222 117.753 15.1249 115.863 13.3876C113.972 11.5991 111.519 10.7305 108.504 10.7305C107.329 10.7305 106.154 10.8838 105.03 11.1904C103.906 11.548 102.986 11.9057 102.321 12.3145C101.657 12.7233 100.993 13.1832 100.38 13.7453C99.7666 14.2563 99.4089 14.6139 99.2045 14.8183C99.0512 15.0227 98.8979 15.176 98.7957 15.3293L102.117 18.6507L102.781 17.782C103.19 17.22 103.906 16.709 104.979 16.1469C106.052 15.5848 107.227 15.3293 108.504 15.3293C109.986 15.3293 111.213 15.7892 112.183 16.6579C113.154 17.5266 113.614 18.6507 113.614 19.9282L104.672 21.4611C102.475 21.8188 100.686 22.6875 99.46 24.0672C98.1825 25.4468 97.5182 27.1331 97.5182 29.1259C97.5182 31.0165 98.3358 32.6517 99.971 34.0824C101.657 35.5643 103.701 36.2797 106.205 36.2797C107.074 36.2797 107.891 36.1775 108.709 35.922C109.577 35.7176 110.242 35.4621 110.804 35.2066C111.366 34.9511 111.877 34.6445 112.337 34.2868C112.797 33.9291 113.103 33.6736 113.308 33.5715C113.461 33.4182 113.563 33.2649 113.614 33.2138V35.7687H118.724ZM106.971 31.6808C105.643 31.6808 104.57 31.3742 103.803 30.761C102.986 30.1479 102.628 29.4325 102.628 28.6149C102.628 27.7462 102.884 26.9798 103.446 26.4177C104.008 25.8556 104.774 25.4468 105.694 25.2935L113.614 24.0161V24.527C113.614 26.8265 113.052 28.5638 111.877 29.8413C110.702 31.0676 109.066 31.6808 106.971 31.6808Z" fill="white"/>
<path d="M130 0H124.89V35.7689H130V0Z" fill="white"/>
<path d="M0 53.1185H1.59915V58.7253H5.06396V60.0283H0V53.1185Z" fill="white"/>
<path d="M15.5016 58.5477H12.2934L11.6814 60.0283H10.0428L13.1226 53.1185H14.702L17.7917 60.0283H16.1136L15.5016 58.5477ZM14.9982 57.3335L13.9025 54.688L12.8067 57.3335H14.9982Z" fill="white"/>
<path d="M33.5121 53.1185L31.2516 60.0283H29.534L28.0138 55.3494L26.4443 60.0283H24.7366L22.4662 53.1185H24.1245L25.6842 57.9751L27.313 53.1185H28.7937L30.3731 58.0146L31.9821 53.1185H33.5121Z" fill="white"/>
<path d="M50.5232 60.1468C49.819 60.1468 49.1807 59.9954 48.6082 59.6927C48.0422 59.3834 47.5947 58.959 47.2657 58.4193C46.9432 57.8731 46.782 57.2578 46.782 56.5734C46.782 55.889 46.9432 55.277 47.2657 54.7373C47.5947 54.1911 48.0422 53.7667 48.6082 53.464C49.1807 53.1547 49.8223 53 50.5331 53C51.1319 53 51.6716 53.1053 52.152 53.3159C52.6389 53.5265 53.0469 53.8292 53.376 54.224L52.3494 55.1717C51.8821 54.6321 51.303 54.3622 50.612 54.3622C50.1843 54.3622 49.8026 54.4577 49.467 54.6485C49.1313 54.8328 48.8681 55.0927 48.6773 55.4283C48.493 55.764 48.4009 56.1456 48.4009 56.5734C48.4009 57.0012 48.493 57.3828 48.6773 57.7185C48.8681 58.0541 49.1313 58.3173 49.467 58.5082C49.8026 58.6924 50.1843 58.7846 50.612 58.7846C51.303 58.7846 51.8821 58.5115 52.3494 57.9653L53.376 58.9129C53.0469 59.3143 52.6389 59.6203 52.152 59.8309C51.665 60.0415 51.1221 60.1468 50.5232 60.1468Z" fill="white"/>
<path d="M62.5933 60.1468C61.876 60.1468 61.2278 59.9922 60.6487 59.6829C60.0761 59.3736 59.6253 58.9491 59.2963 58.4095C58.9738 57.8632 58.8126 57.2512 58.8126 56.5734C58.8126 55.8956 58.9738 55.2868 59.2963 54.7472C59.6253 54.201 60.0761 53.7733 60.6487 53.464C61.2278 53.1547 61.876 53 62.5933 53C63.3106 53 63.9555 53.1547 64.5281 53.464C65.1006 53.7733 65.5514 54.201 65.8804 54.7472C66.2095 55.2868 66.374 55.8956 66.374 56.5734C66.374 57.2512 66.2095 57.8632 65.8804 58.4095C65.5514 58.9491 65.1006 59.3736 64.5281 59.6829C63.9555 59.9922 63.3106 60.1468 62.5933 60.1468ZM62.5933 58.7846C63.0013 58.7846 63.3698 58.6924 63.6989 58.5082C64.0279 58.3173 64.2846 58.0541 64.4688 57.7185C64.6597 57.3828 64.7551 57.0012 64.7551 56.5734C64.7551 56.1456 64.6597 55.764 64.4688 55.4283C64.2846 55.0927 64.0279 54.8328 63.6989 54.6485C63.3698 54.4577 63.0013 54.3622 62.5933 54.3622C62.1853 54.3622 61.8168 54.4577 61.4877 54.6485C61.1587 54.8328 60.8987 55.0927 60.7079 55.4283C60.5236 55.764 60.4315 56.1456 60.4315 56.5734C60.4315 57.0012 60.5236 57.3828 60.7079 57.7185C60.8987 58.0541 61.1587 58.3173 61.4877 58.5082C61.8168 58.6924 62.1853 58.7846 62.5933 58.7846Z" fill="white"/>
<path d="M78.7995 60.0283L78.7896 55.8824L76.7561 59.2979H76.0355L74.0119 55.9713V60.0283H72.5115V53.1185H73.8342L76.4205 57.4125L78.9673 53.1185H80.2802L80.2999 60.0283H78.7995Z" fill="white"/>
<path d="M89.8659 53.1185C90.478 53.1185 91.0077 53.2205 91.4552 53.4245C91.9093 53.6285 92.2581 53.918 92.5016 54.2931C92.7451 54.6682 92.8668 55.1125 92.8668 55.6258C92.8668 56.1325 92.7451 56.5767 92.5016 56.9584C92.2581 57.3335 91.9093 57.623 91.4552 57.8271C91.0077 58.0245 90.478 58.1232 89.8659 58.1232H88.4741V60.0283H86.8749V53.1185H89.8659ZM89.7771 56.8202C90.2575 56.8202 90.6227 56.7182 90.8728 56.5142C91.1229 56.3036 91.2479 56.0074 91.2479 55.6258C91.2479 55.2375 91.1229 54.9414 90.8728 54.7373C90.6227 54.5268 90.2575 54.4215 89.7771 54.4215H88.4741V56.8202H89.7771Z" fill="white"/>
<path d="M103.148 58.5477H99.9396L99.3276 60.0283H97.6889L100.769 53.1185H102.348L105.438 60.0283H103.76L103.148 58.5477ZM102.644 57.3335L101.549 54.688L100.453 57.3335H102.644Z" fill="white"/>
<path d="M117.428 53.1185V60.0283H116.115L112.67 55.8331V60.0283H111.09V53.1185H112.413L115.848 57.3137V53.1185H117.428Z" fill="white"/>
<path d="M127.315 57.5803V60.0283H125.716V57.5605L123.041 53.1185H124.739L126.585 56.1884L128.43 53.1185H130L127.315 57.5803Z" fill="white"/>
</g>
<defs>
<clipPath id="clip0_179350_1063">
<rect width="130" height="60" fill="white"/>
</clipPath>
</defs>
</symbol>

<symbol id="dot" width="6" height="6" viewBox="0 0 6 6" fill="none">
<circle cx="3" cy="3" r="3" fill="#E6E6F0"/>
</symbol>

<symbol id="facebook" width="24" height="24" viewBox="0 0 24 24" fill="none">
<g clip-path="url(#clip0_179350_1097)">
<path d="M24 12.0733C24 5.40541 18.6274 0 12 0C5.37258 0 0 5.40541 0 12.0733C0 18.0995 4.38823 23.0943 10.125 24V15.5633H7.07812V12.0733H10.125V9.41343C10.125 6.38755 11.9165 4.71615 14.6576 4.71615C15.9705 4.71615 17.3438 4.95195 17.3438 4.95195V7.92313H15.8306C14.3399 7.92313 13.875 8.85379 13.875 9.80857V12.0733H17.2031L16.6711 15.5633H13.875V24C19.6118 23.0943 24 18.0995 24 12.0733Z" fill="currentColor"/>
</g>
<defs>
<clipPath id="clip0_179350_1097">
<rect width="24" height="24" fill="white"/>
</clipPath>
</defs>
</symbol>

<symbol id="down" width="42" height="42" viewBox="0 0 42 42" fill="none">
<g clip-path="url(#clip0_22728_11340)">
<circle opacity="0.5" cx="21" cy="21" r="20" stroke="currentColor" stroke-width="2"/>
<path d="M12 18L21 27L30 18" stroke="currentColor" stroke-width="2"/>
</g>
<defs>
<clipPath id="clip0_22728_11340">
<rect width="42" height="42" fill="white"/>
</clipPath>
</defs>
</symbol>

<symbol id="services" width="94" height="17" viewBox="0 0 94 17" fill="none">
<path d="M4.382 14.168C3.60733 14.168 2.856 14.0653 2.128 13.86C1.40933 13.6453 0.830667 13.37 0.392 13.034L1.162 11.326C1.582 11.634 2.08133 11.8813 2.66 12.068C3.23867 12.2547 3.81733 12.348 4.396 12.348C5.04 12.348 5.516 12.2547 5.824 12.068C6.132 11.872 6.286 11.6153 6.286 11.298C6.286 11.0647 6.19267 10.8733 6.006 10.724C5.82867 10.5653 5.59533 10.4393 5.306 10.346C5.026 10.2527 4.64333 10.15 4.158 10.038C3.41133 9.86067 2.8 9.68333 2.324 9.506C1.848 9.32867 1.43733 9.044 1.092 8.652C0.756 8.26 0.588 7.73733 0.588 7.084C0.588 6.51467 0.742 6.00133 1.05 5.544C1.358 5.07733 1.82 4.70867 2.436 4.438C3.06133 4.16733 3.822 4.032 4.718 4.032C5.34333 4.032 5.95467 4.10667 6.552 4.256C7.14933 4.40533 7.672 4.62 8.12 4.9L7.42 6.622C6.51467 6.10867 5.60933 5.852 4.704 5.852C4.06933 5.852 3.598 5.95467 3.29 6.16C2.99133 6.36533 2.842 6.636 2.842 6.972C2.842 7.308 3.01467 7.56 3.36 7.728C3.71467 7.88667 4.25133 8.04533 4.97 8.204C5.71667 8.38133 6.328 8.55867 6.804 8.736C7.28 8.91333 7.686 9.19333 8.022 9.576C8.36733 9.95867 8.54 10.4767 8.54 11.13C8.54 11.69 8.38133 12.2033 8.064 12.67C7.756 13.1273 7.28933 13.4913 6.664 13.762C6.03867 14.0327 5.278 14.168 4.382 14.168ZM18.6777 12.18V14H11.0897V4.2H18.4957V6.02H13.3437V8.148H17.8937V9.912H13.3437V12.18H18.6777ZM27.7263 14L25.8363 11.27H25.7243H23.7503V14H21.4823V4.2H25.7243C26.5923 4.2 27.3436 4.34467 27.9783 4.634C28.6223 4.92333 29.117 5.334 29.4623 5.866C29.8076 6.398 29.9803 7.028 29.9803 7.756C29.9803 8.484 29.803 9.114 29.4483 9.646C29.103 10.1687 28.6083 10.57 27.9643 10.85L30.1623 14H27.7263ZM27.6843 7.756C27.6843 7.20533 27.507 6.78533 27.1523 6.496C26.7976 6.19733 26.2796 6.048 25.5983 6.048H23.7503V9.464H25.5983C26.2796 9.464 26.7976 9.31467 27.1523 9.016C27.507 8.71733 27.6843 8.29733 27.6843 7.756ZM42.1992 4.2L37.9572 14H35.7172L31.4892 4.2H33.9392L36.9212 11.2L39.9452 4.2H42.1992ZM44.0175 4.2H46.2855V14H44.0175V4.2ZM54.3012 14.168C53.3026 14.168 52.3972 13.9533 51.5852 13.524C50.7826 13.0853 50.1479 12.4833 49.6812 11.718C49.2239 10.9433 48.9952 10.0707 48.9952 9.1C48.9952 8.12933 49.2239 7.26133 49.6812 6.496C50.1479 5.72133 50.7826 5.11933 51.5852 4.69C52.3972 4.25133 53.3072 4.032 54.3152 4.032C55.1646 4.032 55.9299 4.18133 56.6112 4.48C57.3019 4.77867 57.8806 5.208 58.3472 5.768L56.8912 7.112C56.2286 6.34667 55.4072 5.964 54.4272 5.964C53.8206 5.964 53.2792 6.09933 52.8032 6.37C52.3272 6.63133 51.9539 7 51.6832 7.476C51.4219 7.952 51.2912 8.49333 51.2912 9.1C51.2912 9.70667 51.4219 10.248 51.6832 10.724C51.9539 11.2 52.3272 11.5733 52.8032 11.844C53.2792 12.1053 53.8206 12.236 54.4272 12.236C55.4072 12.236 56.2286 11.8487 56.8912 11.074L58.3472 12.418C57.8806 12.9873 57.3019 13.4213 56.6112 13.72C55.9206 14.0187 55.1506 14.168 54.3012 14.168ZM68.4668 12.18V14H60.8788V4.2H68.2848V6.02H63.1328V8.148H67.6828V9.912H63.1328V12.18H68.4668ZM74.4914 14.168C73.7167 14.168 72.9654 14.0653 72.2374 13.86C71.5187 13.6453 70.94 13.37 70.5014 13.034L71.2714 11.326C71.6914 11.634 72.1907 11.8813 72.7694 12.068C73.348 12.2547 73.9267 12.348 74.5054 12.348C75.1494 12.348 75.6254 12.2547 75.9334 12.068C76.2414 11.872 76.3954 11.6153 76.3954 11.298C76.3954 11.0647 76.302 10.8733 76.1154 10.724C75.938 10.5653 75.7047 10.4393 75.4154 10.346C75.1354 10.2527 74.7527 10.15 74.2674 10.038C73.5207 9.86067 72.9094 9.68333 72.4334 9.506C71.9574 9.32867 71.5467 9.044 71.2014 8.652C70.8654 8.26 70.6974 7.73733 70.6974 7.084C70.6974 6.51467 70.8514 6.00133 71.1594 5.544C71.4674 5.07733 71.9294 4.70867 72.5454 4.438C73.1707 4.16733 73.9314 4.032 74.8274 4.032C75.4527 4.032 76.064 4.10667 76.6614 4.256C77.2587 4.40533 77.7814 4.62 78.2294 4.9L77.5294 6.622C76.624 6.10867 75.7187 5.852 74.8134 5.852C74.1787 5.852 73.7074 5.95467 73.3994 6.16C73.1007 6.36533 72.9514 6.636 72.9514 6.972C72.9514 7.308 73.124 7.56 73.4694 7.728C73.824 7.88667 74.3607 8.04533 75.0794 8.204C75.826 8.38133 76.4374 8.55867 76.9134 8.736C77.3894 8.91333 77.7954 9.19333 78.1314 9.576C78.4767 9.95867 78.6494 10.4767 78.6494 11.13C78.6494 11.69 78.4907 12.2033 78.1734 12.67C77.8654 13.1273 77.3987 13.4913 76.7734 13.762C76.148 14.0327 75.3874 14.168 74.4914 14.168Z" fill="currentColor"/>
<path d="M85.5 4L90 8.5L85.5 13" stroke="currentColor" stroke-width="2"/>
</symbol>

<symbol id="services1" width="92" height="92" viewBox="0 0 92 92" fill="none">
<rect width="92" height="92" rx="24" fill="white"/>
<path d="M37.7339 42.125C38.8379 42.125 39.7339 41.229 39.7339 40.125V32.325C39.7339 28.838 42.5709 26 46.0579 26C49.5449 26 52.3829 28.838 52.3829 32.325V40.125C52.3829 41.229 53.2779 42.125 54.3829 42.125C55.4869 42.125 56.3829 41.229 56.3829 40.125V32.325C56.3839 26.632 51.7519 22 46.0579 22C40.3659 22 35.7339 26.632 35.7339 32.325V40.125C35.7339 41.229 36.6299 42.125 37.7339 42.125Z" fill="url(#paint0_linear_22728_10152)"/>
<path d="M69 37.6309H58.384V40.1249C58.384 42.3309 56.59 44.1249 54.384 44.1249C52.178 44.1249 50.384 42.3309 50.384 40.1249V37.6309H41.735V40.1249C41.735 42.3309 39.941 44.1249 37.735 44.1249C35.529 44.1249 33.735 42.3309 33.735 40.1249V37.6309H23C22.448 37.6309 22.107 38.0659 22.238 38.6019L29.236 67.0989C29.658 68.7009 31.344 69.9999 33 69.9999H59C60.658 69.9999 62.342 68.7009 62.766 67.0989L69.762 38.6019C69.893 38.0649 69.553 37.6309 69 37.6309Z" fill="url(#paint1_linear_22728_10152)"/>
<path d="M42.6001 48.4C42.6001 47.6265 43.2266 47 44.0001 47C44.7736 47 45.4001 47.6265 45.4001 48.4V55.35L45.4001 54C45.4001 53.2265 46.0266 52.6 46.8001 52.6C47.5736 52.6 48.2001 53.2265 48.2001 54V55.6764C48.2127 54.9141 48.8346 53.3 49.6 53.3C50.3731 53.3 50.9999 53.9268 51 54.7C51 54.7 51.0411 55.7411 51.1332 55.8033C51.3572 55.3285 51.8402 54 52.4 54C53.1732 54 53.8 54.6268 53.8 55.4V62.4C53.8 63.9463 52.5463 65.2 51 65.2H46.3198C44.8344 65.2 43.4099 64.6099 42.3599 63.5599L40.15 61.35L37 59.9402C37.0051 58.6033 38.0526 58.2 39.1 58.2C40.0023 58.2 40.8136 58.3407 42.6 59.25L42.6001 48.4Z" fill="white"/>
<defs>
<linearGradient id="paint0_linear_22728_10152" x1="46.0584" y1="22" x2="46.0584" y2="42.125" gradientUnits="userSpaceOnUse">
<stop stop-color="#EF8080"/>
<stop offset="1" stop-color="#F0145A"/>
</linearGradient>
<linearGradient id="paint1_linear_22728_10152" x1="46" y1="37.6309" x2="46" y2="69.9999" gradientUnits="userSpaceOnUse">
<stop stop-color="#EF8080"/>
<stop offset="1" stop-color="#F0145A"/>
</linearGradient>
</defs>
</symbol>

<symbol id="services2" width="92" height="92" viewBox="0 0 92 92" fill="none">
<rect width="92" height="92" rx="24" fill="white"/>
<path fill-rule="evenodd" clip-rule="evenodd" d="M67.4513 49.0762V66.3713C67.4513 69.4647 65.027 71.9997 62.0632 71.9997H29.9702C27.0064 71.9997 24.5822 69.4647 24.5822 66.3713V49.0762H41.2482V56.587L46.0167 59.7204L50.7852 56.587V49.0762H67.4513Z" fill="url(#paint0_linear_22728_10158)"/>
<path fill-rule="evenodd" clip-rule="evenodd" d="M42.9185 49.0762V55.6847L46.0166 57.7202L49.1147 55.6847V49.0762H42.9185Z" fill="url(#paint1_linear_22728_10158)"/>
<path fill-rule="evenodd" clip-rule="evenodd" d="M26.0734 29.1426H65.9599C67.8423 29.1426 69.3808 30.8507 69.3808 32.938V43.1912C69.3808 45.2786 67.8423 46.9867 65.9599 46.9867H50.314H41.7194H26.0734C24.191 46.9867 22.6526 45.2786 22.6526 43.1912V32.938C22.6526 30.8507 24.191 29.1426 26.0734 29.1426Z" fill="url(#paint2_linear_22728_10158)"/>
<path fill-rule="evenodd" clip-rule="evenodd" d="M37.7119 19.9551H54.3214C55.8646 19.9551 57.1274 21.2179 57.1274 22.761V27.1384H53.5699V24.5516C53.5699 23.8542 52.9998 23.2817 52.3024 23.2817H39.731C39.0336 23.2817 38.4635 23.8542 38.4635 24.5516V27.1384H34.9059V22.761C34.9059 21.2179 36.1687 19.9551 37.7119 19.9551Z" fill="url(#paint3_linear_22728_10158)"/>
<defs>
<linearGradient id="paint0_linear_22728_10158" x1="46.0167" y1="49.0762" x2="46.0167" y2="71.9997" gradientUnits="userSpaceOnUse">
<stop stop-color="#EF8080"/>
<stop offset="1" stop-color="#F0145A"/>
</linearGradient>
<linearGradient id="paint1_linear_22728_10158" x1="46.0166" y1="49.0762" x2="46.0166" y2="57.7202" gradientUnits="userSpaceOnUse">
<stop stop-color="#EF8080"/>
<stop offset="1" stop-color="#F0145A"/>
</linearGradient>
<linearGradient id="paint2_linear_22728_10158" x1="46.0167" y1="29.1426" x2="46.0167" y2="46.9867" gradientUnits="userSpaceOnUse">
<stop stop-color="#EF8080"/>
<stop offset="1" stop-color="#F0145A"/>
</linearGradient>
<linearGradient id="paint3_linear_22728_10158" x1="46.0167" y1="19.9551" x2="46.0167" y2="27.1384" gradientUnits="userSpaceOnUse">
<stop stop-color="#EF8080"/>
<stop offset="1" stop-color="#F0145A"/>
</linearGradient>
</defs>
</symbol>

<symbol id="services3" width="92" height="92" viewBox="0 0 92 92" fill="none">
<rect width="92" height="92" rx="24" fill="white"/>
<g clip-path="url(#clip0_22728_10164)">
<path d="M74.5264 51.7273C73.8389 51.4426 73.1151 51.2982 72.3752 51.2982C70.7435 51.2982 69.2362 51.9946 68.1896 53.1615L66.9696 52.6562L63.4895 51.2147C63.9834 49.5616 64.2499 47.8113 64.2499 45.9998C64.2499 44.1883 63.9832 42.4381 63.4895 40.7849L66.9696 39.3435L68.1896 38.8381C69.2362 40.0051 70.7435 40.7014 72.3752 40.7014C73.1151 40.7014 73.8389 40.5571 74.5264 40.2722C77.3917 39.0852 78.7575 35.7883 77.5705 32.9227C76.6965 30.8128 74.656 29.4493 72.3722 29.4493C71.6324 29.4493 70.9086 29.5937 70.2211 29.8786C67.9629 30.814 66.6374 33.0598 66.7574 35.3722L65.5303 35.8805L62.0513 37.3215C60.3611 34.208 57.7916 31.6383 54.6781 29.9483L56.1191 26.4694L56.6269 25.2436C56.7253 25.2487 56.8239 25.2517 56.9229 25.2517C59.2068 25.2517 61.2471 23.8884 62.1213 21.7784C63.3081 18.9129 61.9425 15.6159 59.077 14.4289C58.3894 14.1444 57.6658 14 56.9259 14C54.642 14 52.6017 15.3634 51.7275 17.4734C50.7922 19.7316 51.4429 22.257 53.1629 23.8072L52.6564 25.0301L51.2149 28.5102C49.5618 28.0165 47.8115 27.7498 46 27.7498C44.1885 27.7498 42.4383 28.0165 40.7852 28.5102L39.3437 25.0301L38.8372 23.8072C40.5572 22.257 41.2079 19.7316 40.2725 17.4732C39.3984 15.3634 37.3578 14 35.0741 14C34.3342 14 33.6104 14.1444 32.9229 14.4292C30.0576 15.6162 28.6918 18.9131 29.8788 21.7787C30.7528 23.8886 32.7933 25.2521 35.0771 25.2521C35.1761 25.2521 35.2747 25.2491 35.3731 25.244L35.8808 26.4697L37.3218 29.9487C34.2083 31.6388 31.6387 34.2083 29.9487 37.3218L26.4697 35.8808L25.2426 35.3726C25.3626 33.0602 24.0371 30.8143 21.7788 29.8788C21.0913 29.5941 20.3676 29.4497 19.6277 29.4497C17.3438 29.4497 15.3035 30.8131 14.4293 32.9231C13.2425 35.7886 14.6081 39.0856 17.4736 40.2726C18.1611 40.5573 18.8848 40.7017 19.6247 40.7017C21.2565 40.7017 22.7637 40.0053 23.8103 38.8383L25.0303 39.3437L28.5104 40.7852C28.0166 42.4383 27.7501 44.1886 27.7501 46.0001C27.7501 47.8116 28.0167 49.5618 28.5104 51.2149L25.0302 52.6562L23.8102 53.1615C22.7636 51.9946 21.2563 51.2982 19.6246 51.2982C18.8847 51.2982 18.161 51.4426 17.4735 51.7274C14.6081 52.9144 13.2423 56.2113 14.4293 59.0769C15.3033 61.1868 17.3438 62.5503 19.6276 62.5503C20.3675 62.5503 21.0912 62.4059 21.7787 62.121C24.037 61.1857 25.3624 58.9398 25.2424 56.6274L26.4696 56.1192L29.9486 54.6782C31.6387 57.7917 34.2082 60.3613 37.3217 62.0513L35.8807 65.5303L35.3729 66.756C35.2746 66.7509 35.1759 66.7479 35.0769 66.7479C32.7931 66.7479 30.7527 68.1113 29.8786 70.2213C28.6917 73.0868 30.0573 76.3838 32.9228 77.5708C33.6103 77.8555 34.3341 77.9999 35.0739 77.9999C37.3578 77.9999 39.3982 76.6365 40.2723 74.5265C41.2077 72.2683 40.5569 69.7429 38.8369 68.1926L39.3434 66.9698L40.7849 63.4897C42.438 63.9834 44.1883 64.25 45.9998 64.25C47.8113 64.25 49.5615 63.9834 51.2146 63.4897L52.6561 66.9698L53.1626 68.1926C51.4426 69.7429 50.7919 72.2683 51.7273 74.5266C52.6013 76.6365 54.6418 78 56.9255 78C57.6654 78 58.3891 77.8556 59.0766 77.5708C61.942 76.3838 63.3078 73.0869 62.1208 70.2213C61.2468 68.1114 59.2063 66.7479 56.9225 66.7479C56.8235 66.7479 56.7249 66.7509 56.6265 66.756L56.1188 65.5303L54.6778 62.0513C57.7913 60.3612 60.3609 57.7917 62.0509 54.6782L65.5299 56.1192L66.757 56.6274C66.637 58.9398 67.9625 61.1857 70.2207 62.1212C70.9082 62.4059 71.632 62.5503 72.3719 62.5503C74.6557 62.5503 76.6961 61.1869 77.5702 59.0769C78.7575 56.2113 77.392 52.9143 74.5264 51.7273ZM46 60.4998C38.0048 60.4998 31.5001 53.995 31.5001 45.9998C31.5001 38.0046 38.0048 31.4998 46 31.4998C53.9953 31.4998 60.5 38.0046 60.5 45.9998C60.5 53.995 53.9951 60.4998 46 60.4998Z" fill="black"/>
<path d="M74.5264 51.7273C73.8389 51.4426 73.1151 51.2982 72.3752 51.2982C70.7435 51.2982 69.2362 51.9946 68.1896 53.1615L66.9696 52.6562L63.4895 51.2147C63.9834 49.5616 64.2499 47.8113 64.2499 45.9998C64.2499 44.1883 63.9832 42.4381 63.4895 40.7849L66.9696 39.3435L68.1896 38.8381C69.2362 40.0051 70.7435 40.7014 72.3752 40.7014C73.1151 40.7014 73.8389 40.5571 74.5264 40.2722C77.3917 39.0852 78.7575 35.7883 77.5705 32.9227C76.6965 30.8128 74.656 29.4493 72.3722 29.4493C71.6324 29.4493 70.9086 29.5937 70.2211 29.8786C67.9629 30.814 66.6374 33.0598 66.7574 35.3722L65.5303 35.8805L62.0513 37.3215C60.3611 34.208 57.7916 31.6383 54.6781 29.9483L56.1191 26.4694L56.6269 25.2436C56.7253 25.2487 56.8239 25.2517 56.9229 25.2517C59.2068 25.2517 61.2471 23.8884 62.1213 21.7784C63.3081 18.9129 61.9425 15.6159 59.077 14.4289C58.3894 14.1444 57.6658 14 56.9259 14C54.642 14 52.6017 15.3634 51.7275 17.4734C50.7922 19.7316 51.4429 22.257 53.1629 23.8072L52.6564 25.0301L51.2149 28.5102C49.5618 28.0165 47.8115 27.7498 46 27.7498C44.1885 27.7498 42.4383 28.0165 40.7852 28.5102L39.3437 25.0301L38.8372 23.8072C40.5572 22.257 41.2079 19.7316 40.2725 17.4732C39.3984 15.3634 37.3578 14 35.0741 14C34.3342 14 33.6104 14.1444 32.9229 14.4292C30.0576 15.6162 28.6918 18.9131 29.8788 21.7787C30.7528 23.8886 32.7933 25.2521 35.0771 25.2521C35.1761 25.2521 35.2747 25.2491 35.3731 25.244L35.8808 26.4697L37.3218 29.9487C34.2083 31.6388 31.6387 34.2083 29.9487 37.3218L26.4697 35.8808L25.2426 35.3726C25.3626 33.0602 24.0371 30.8143 21.7788 29.8788C21.0913 29.5941 20.3676 29.4497 19.6277 29.4497C17.3438 29.4497 15.3035 30.8131 14.4293 32.9231C13.2425 35.7886 14.6081 39.0856 17.4736 40.2726C18.1611 40.5573 18.8848 40.7017 19.6247 40.7017C21.2565 40.7017 22.7637 40.0053 23.8103 38.8383L25.0303 39.3437L28.5104 40.7852C28.0166 42.4383 27.7501 44.1886 27.7501 46.0001C27.7501 47.8116 28.0167 49.5618 28.5104 51.2149L25.0302 52.6562L23.8102 53.1615C22.7636 51.9946 21.2563 51.2982 19.6246 51.2982C18.8847 51.2982 18.161 51.4426 17.4735 51.7274C14.6081 52.9144 13.2423 56.2113 14.4293 59.0769C15.3033 61.1868 17.3438 62.5503 19.6276 62.5503C20.3675 62.5503 21.0912 62.4059 21.7787 62.121C24.037 61.1857 25.3624 58.9398 25.2424 56.6274L26.4696 56.1192L29.9486 54.6782C31.6387 57.7917 34.2082 60.3613 37.3217 62.0513L35.8807 65.5303L35.3729 66.756C35.2746 66.7509 35.1759 66.7479 35.0769 66.7479C32.7931 66.7479 30.7527 68.1113 29.8786 70.2213C28.6917 73.0868 30.0573 76.3838 32.9228 77.5708C33.6103 77.8555 34.3341 77.9999 35.0739 77.9999C37.3578 77.9999 39.3982 76.6365 40.2723 74.5265C41.2077 72.2683 40.5569 69.7429 38.8369 68.1926L39.3434 66.9698L40.7849 63.4897C42.438 63.9834 44.1883 64.25 45.9998 64.25C47.8113 64.25 49.5615 63.9834 51.2146 63.4897L52.6561 66.9698L53.1626 68.1926C51.4426 69.7429 50.7919 72.2683 51.7273 74.5266C52.6013 76.6365 54.6418 78 56.9255 78C57.6654 78 58.3891 77.8556 59.0766 77.5708C61.942 76.3838 63.3078 73.0869 62.1208 70.2213C61.2468 68.1114 59.2063 66.7479 56.9225 66.7479C56.8235 66.7479 56.7249 66.7509 56.6265 66.756L56.1188 65.5303L54.6778 62.0513C57.7913 60.3612 60.3609 57.7917 62.0509 54.6782L65.5299 56.1192L66.757 56.6274C66.637 58.9398 67.9625 61.1857 70.2207 62.1212C70.9082 62.4059 71.632 62.5503 72.3719 62.5503C74.6557 62.5503 76.6961 61.1869 77.5702 59.0769C78.7575 56.2113 77.392 52.9143 74.5264 51.7273ZM46 60.4998C38.0048 60.4998 31.5001 53.995 31.5001 45.9998C31.5001 38.0046 38.0048 31.4998 46 31.4998C53.9953 31.4998 60.5 38.0046 60.5 45.9998C60.5 53.995 53.9951 60.4998 46 60.4998Z" fill="url(#paint0_linear_22728_10164)"/>
<path d="M46.0001 35.25C40.0726 35.25 35.2501 40.0725 35.2501 46C35.2501 51.9275 40.0726 56.75 46.0001 56.75C51.9276 56.75 56.7501 51.9275 56.7501 46C56.7501 40.0725 51.9276 35.25 46.0001 35.25ZM47.8751 50.125H44.1251V41.875H47.8751V50.125Z" fill="black"/>
<path d="M46.0001 35.25C40.0726 35.25 35.2501 40.0725 35.2501 46C35.2501 51.9275 40.0726 56.75 46.0001 56.75C51.9276 56.75 56.7501 51.9275 56.7501 46C56.7501 40.0725 51.9276 35.25 46.0001 35.25ZM47.8751 50.125H44.1251V41.875H47.8751V50.125Z" fill="url(#paint1_linear_22728_10164)"/>
</g>
<defs>
<linearGradient id="paint0_linear_22728_10164" x1="45.9999" y1="14" x2="45.9999" y2="78" gradientUnits="userSpaceOnUse">
<stop stop-color="#EF8080"/>
<stop offset="1" stop-color="#F0145A"/>
</linearGradient>
<linearGradient id="paint1_linear_22728_10164" x1="46.0001" y1="35.25" x2="46.0001" y2="56.75" gradientUnits="userSpaceOnUse">
<stop stop-color="#EF8080"/>
<stop offset="1" stop-color="#F0145A"/>
</linearGradient>
<clipPath id="clip0_22728_10164">
<rect width="64" height="64" fill="white" transform="translate(14 14)"/>
</clipPath>
</defs>
</symbol>

<symbol id="services4" width="92" height="92" viewBox="0 0 92 92" fill="none">
<rect width="92" height="92" rx="24" fill="white"/>
<path d="M56.0057 70H37.0057V76H56.0057V70Z" fill="black"/>
<path d="M56.0057 70H37.0057V76H56.0057V70Z" fill="url(#paint0_linear_22728_10171)"/>
<path d="M29.1727 16.4517L15.7376 29.8867L19.2732 33.4223L32.7082 19.9872L29.1727 16.4517Z" fill="black"/>
<path d="M29.1727 16.4517L15.7376 29.8867L19.2732 33.4223L32.7082 19.9872L29.1727 16.4517Z" fill="url(#paint1_linear_22728_10171)"/>
<path d="M63.1127 16.3199L59.5771 19.8555L73.0122 33.2905L76.5477 29.755L63.1127 16.3199Z" fill="black"/>
<path d="M63.1127 16.3199L59.5771 19.8555L73.0122 33.2905L76.5477 29.755L63.1127 16.3199Z" fill="url(#paint2_linear_22728_10171)"/>
<path d="M58.5563 23.7084L55.865 23.5944C55.089 23.4848 54.2981 23.5571 53.5548 23.8056C52.8115 24.054 52.1361 24.4718 51.5819 25.026L46.0774 30.5305L40.3239 24.7769C39.8243 24.2888 39.2011 23.9463 38.5213 23.7861C37.8415 23.626 37.1309 23.6543 36.466 23.868C35.8388 24.0587 35.1715 24.0755 34.5355 23.9164C33.8994 23.7573 33.3186 23.4284 32.855 22.9648L32.0011 22.1109L21.3945 32.7175L23.1225 34.4455L23.0084 37.1368C22.8988 37.9128 22.9712 38.7037 23.2196 39.447C23.468 40.1903 23.8858 40.8657 24.44 41.4199L34.0524 51.0324C34.1809 49.7705 34.7855 48.6051 35.7431 47.7734L32.7482 44.7785L33.4553 44.0714L36.5835 47.1996C37.0269 46.9472 37.5067 46.7649 38.0059 46.6591V42.9651L36.2837 41.243L36.9908 40.5358L38.0059 41.5509V36.201C37.9947 35.3168 38.3086 34.4592 38.8878 33.791C39.4671 33.1228 40.2715 32.6904 41.1484 32.576C41.4792 32.544 41.8127 32.559 42.1392 32.6208L40.9097 31.3914L41.6169 30.6843L43.413 32.4804C43.7311 31.864 44.2232 31.3547 44.8283 31.0154C45.4333 30.6762 46.1246 30.5221 46.8164 30.5721C47.6513 30.6697 48.4258 31.0562 49.0056 31.6647C49.5854 32.2733 49.9341 33.0655 49.9912 33.9041C50.5595 33.634 51.1893 33.5194 51.8164 33.5721C52.7075 33.6788 53.5272 34.1126 54.1165 34.7895C54.7059 35.4663 55.0228 36.3379 55.0058 37.2352V40.6591C55.9159 40.8491 56.755 41.289 57.4291 41.9293C58.1031 42.5696 58.5855 43.3851 58.8219 44.2842L61.6105 41.4957L62.3176 42.2029L59.0023 45.5181C59.0024 45.5319 59.0059 45.5447 59.0059 45.5585V48.8785C59.9043 48.7845 60.7436 48.3864 61.3848 47.7501L68.2249 40.9099C68.713 40.4104 69.0556 39.7871 69.2157 39.1073C69.3759 38.4276 69.3475 37.7169 69.1338 37.0521C68.943 36.4248 68.9263 35.7575 69.0854 35.1215C69.2445 34.4854 69.5734 33.9046 70.037 33.441L70.8909 32.5871L60.2843 21.9805L58.5563 23.7084Z" fill="black"/>
<path d="M58.5563 23.7084L55.865 23.5944C55.089 23.4848 54.2981 23.5571 53.5548 23.8056C52.8115 24.054 52.1361 24.4718 51.5819 25.026L46.0774 30.5305L40.3239 24.7769C39.8243 24.2888 39.2011 23.9463 38.5213 23.7861C37.8415 23.626 37.1309 23.6543 36.466 23.868C35.8388 24.0587 35.1715 24.0755 34.5355 23.9164C33.8994 23.7573 33.3186 23.4284 32.855 22.9648L32.0011 22.1109L21.3945 32.7175L23.1225 34.4455L23.0084 37.1368C22.8988 37.9128 22.9712 38.7037 23.2196 39.447C23.468 40.1903 23.8858 40.8657 24.44 41.4199L34.0524 51.0324C34.1809 49.7705 34.7855 48.6051 35.7431 47.7734L32.7482 44.7785L33.4553 44.0714L36.5835 47.1996C37.0269 46.9472 37.5067 46.7649 38.0059 46.6591V42.9651L36.2837 41.243L36.9908 40.5358L38.0059 41.5509V36.201C37.9947 35.3168 38.3086 34.4592 38.8878 33.791C39.4671 33.1228 40.2715 32.6904 41.1484 32.576C41.4792 32.544 41.8127 32.559 42.1392 32.6208L40.9097 31.3914L41.6169 30.6843L43.413 32.4804C43.7311 31.864 44.2232 31.3547 44.8283 31.0154C45.4333 30.6762 46.1246 30.5221 46.8164 30.5721C47.6513 30.6697 48.4258 31.0562 49.0056 31.6647C49.5854 32.2733 49.9341 33.0655 49.9912 33.9041C50.5595 33.634 51.1893 33.5194 51.8164 33.5721C52.7075 33.6788 53.5272 34.1126 54.1165 34.7895C54.7059 35.4663 55.0228 36.3379 55.0058 37.2352V40.6591C55.9159 40.8491 56.755 41.289 57.4291 41.9293C58.1031 42.5696 58.5855 43.3851 58.8219 44.2842L61.6105 41.4957L62.3176 42.2029L59.0023 45.5181C59.0024 45.5319 59.0059 45.5447 59.0059 45.5585V48.8785C59.9043 48.7845 60.7436 48.3864 61.3848 47.7501L68.2249 40.9099C68.713 40.4104 69.0556 39.7871 69.2157 39.1073C69.3759 38.4276 69.3475 37.7169 69.1338 37.0521C68.943 36.4248 68.9263 35.7575 69.0854 35.1215C69.2445 34.4854 69.5734 33.9046 70.037 33.441L70.8909 32.5871L60.2843 21.9805L58.5563 23.7084Z" fill="url(#paint3_linear_22728_10171)"/>
<path d="M43.8804 35.6901C43.8044 35.0405 43.476 34.4468 42.966 34.0373C42.4559 33.6278 41.8053 33.4353 41.1546 33.5015C40.5234 33.5886 39.9463 33.9046 39.5329 34.3894C39.1194 34.8742 38.8986 35.4941 38.9124 36.1311V47.4885C37.8515 47.4885 36.8341 47.9099 36.0839 48.66C35.3338 49.4102 34.9124 50.4276 34.9124 51.4885V61.1619C34.9205 61.8603 35.1189 62.5432 35.4864 63.1371C35.8538 63.7311 36.3763 64.2135 36.9976 64.5325C37.576 64.8412 38.0597 65.3012 38.3969 65.8634C38.7342 66.4256 38.9123 67.0689 38.9124 67.7245V68.9321H53.9124V66.4885L55.896 64.6661C56.5222 64.1948 57.0303 63.5844 57.3803 62.8831C57.7302 62.1818 57.9123 61.4088 57.9124 60.6251V45.4885C57.9124 44.4276 57.4909 43.4102 56.7408 42.66C55.9906 41.9099 54.9732 41.4885 53.9124 41.4885V37.1659C53.9293 36.5187 53.7062 35.888 53.286 35.3955C52.8657 34.903 52.2781 34.5834 51.6362 34.4983C51.0063 34.4426 50.3787 34.6285 49.8807 35.0183C49.3826 35.408 49.0513 35.9725 48.9539 36.5974H49.4124V52.0407H48.4124V36.5974H48.9124V34.1659C48.9293 33.5187 48.7062 32.888 48.286 32.3955C47.8657 31.903 47.2781 31.5834 46.6362 31.4983C46.2904 31.4673 45.942 31.5086 45.613 31.6196C45.2841 31.7306 44.9819 31.909 44.7256 32.1432C44.4694 32.3775 44.2647 32.6625 44.1247 32.9802C43.9847 33.2979 43.9124 33.6413 43.9124 33.9885V35.6901H44.4124V51.1335H43.4124V35.6901H43.8804ZM39.3115 56.0407H38.3115V48.0407H39.3115V56.0407ZM53.4124 41.799H54.4124V52.2423H53.4124V41.799Z" fill="black"/>
<path d="M43.8804 35.6901C43.8044 35.0405 43.476 34.4468 42.966 34.0373C42.4559 33.6278 41.8053 33.4353 41.1546 33.5015C40.5234 33.5886 39.9463 33.9046 39.5329 34.3894C39.1194 34.8742 38.8986 35.4941 38.9124 36.1311V47.4885C37.8515 47.4885 36.8341 47.9099 36.0839 48.66C35.3338 49.4102 34.9124 50.4276 34.9124 51.4885V61.1619C34.9205 61.8603 35.1189 62.5432 35.4864 63.1371C35.8538 63.7311 36.3763 64.2135 36.9976 64.5325C37.576 64.8412 38.0597 65.3012 38.3969 65.8634C38.7342 66.4256 38.9123 67.0689 38.9124 67.7245V68.9321H53.9124V66.4885L55.896 64.6661C56.5222 64.1948 57.0303 63.5844 57.3803 62.8831C57.7302 62.1818 57.9123 61.4088 57.9124 60.6251V45.4885C57.9124 44.4276 57.4909 43.4102 56.7408 42.66C55.9906 41.9099 54.9732 41.4885 53.9124 41.4885V37.1659C53.9293 36.5187 53.7062 35.888 53.286 35.3955C52.8657 34.903 52.2781 34.5834 51.6362 34.4983C51.0063 34.4426 50.3787 34.6285 49.8807 35.0183C49.3826 35.408 49.0513 35.9725 48.9539 36.5974H49.4124V52.0407H48.4124V36.5974H48.9124V34.1659C48.9293 33.5187 48.7062 32.888 48.286 32.3955C47.8657 31.903 47.2781 31.5834 46.6362 31.4983C46.2904 31.4673 45.942 31.5086 45.613 31.6196C45.2841 31.7306 44.9819 31.909 44.7256 32.1432C44.4694 32.3775 44.2647 32.6625 44.1247 32.9802C43.9847 33.2979 43.9124 33.6413 43.9124 33.9885V35.6901H44.4124V51.1335H43.4124V35.6901H43.8804ZM39.3115 56.0407H38.3115V48.0407H39.3115V56.0407ZM53.4124 41.799H54.4124V52.2423H53.4124V41.799Z" fill="url(#paint4_linear_22728_10171)"/>
<defs>
<linearGradient id="paint0_linear_22728_10171" x1="46.5057" y1="70" x2="46.5057" y2="76" gradientUnits="userSpaceOnUse">
<stop stop-color="#EF8080"/>
<stop offset="1" stop-color="#F0145A"/>
</linearGradient>
<linearGradient id="paint1_linear_22728_10171" x1="22.4551" y1="23.1692" x2="25.9907" y2="26.7047" gradientUnits="userSpaceOnUse">
<stop stop-color="#EF8080"/>
<stop offset="1" stop-color="#F0145A"/>
</linearGradient>
<linearGradient id="paint2_linear_22728_10171" x1="61.3449" y1="18.0877" x2="74.78" y2="31.5228" gradientUnits="userSpaceOnUse">
<stop stop-color="#EF8080"/>
<stop offset="1" stop-color="#F0145A"/>
</linearGradient>
<linearGradient id="paint3_linear_22728_10171" x1="46.1427" y1="21.9805" x2="46.1427" y2="51.0324" gradientUnits="userSpaceOnUse">
<stop stop-color="#EF8080"/>
<stop offset="1" stop-color="#F0145A"/>
</linearGradient>
<linearGradient id="paint4_linear_22728_10171" x1="46.4124" y1="31.4883" x2="46.4124" y2="68.9321" gradientUnits="userSpaceOnUse">
<stop stop-color="#EF8080"/>
<stop offset="1" stop-color="#F0145A"/>
</linearGradient>
</defs>
</symbol>

<symbol id="services5" width="92" height="92" viewBox="0 0 92 92" fill="none">
<rect width="92" height="92" rx="24" fill="white"/>
<path d="M55.2317 51.6961C57.5839 51.6961 59.9096 52.2844 61.9577 53.3974C62.3296 53.5979 62.6709 53.8368 63.0194 54.0667C66.3807 47.4869 68.1545 40.5278 68.1545 33.7388C68.1545 33.3573 68.1545 32.9634 68.1423 32.5696C68.1177 32.0158 67.7238 31.5358 67.1699 31.4127C59.7361 29.7881 53.0038 25.7634 47.7115 19.7819L46.9238 18.8834C46.6899 18.6127 46.3577 18.465 46.0007 18.465C45.6192 18.4158 45.3238 18.6004 45.0899 18.8589L43.8838 20.1881C38.8623 25.7142 32.5361 29.5296 25.5946 31.2281L24.7946 31.425C24.253 31.5481 23.8715 32.0281 23.8592 32.5819C23.4161 49.8865 33.6315 62.3296 38.0377 66.8834C39.2306 68.1082 40.5606 69.3256 41.8253 70.3319C41.3509 68.9011 41.0779 67.3957 41.0779 65.8499C41.0779 58.0452 47.427 51.6961 55.2317 51.6961Z" fill="url(#paint0_linear_22728_10177)"/>
<path d="M60.7822 55.5593C59.0837 54.6363 57.1637 54.1562 55.2314 54.1562C48.7822 54.1562 43.5391 59.3993 43.5391 65.8486C43.5391 68.027 44.1299 70.1562 45.2622 71.9778C47.416 75.4609 51.133 77.5409 55.2314 77.5409C61.6683 77.5409 66.9237 72.2978 66.9237 65.8486C66.9237 61.5409 64.5729 57.6024 60.7822 55.5593ZM61.2196 64.2918L52.0747 71.4084L48.9527 66.5249C48.5862 65.9522 48.7538 65.1914 49.3265 64.8254C49.8999 64.4588 50.6613 64.6277 51.0261 65.1992L52.6937 67.8074L59.7076 62.3495C60.243 61.9318 61.0171 62.0273 61.4347 62.5646C61.8524 63.1013 61.7556 63.8747 61.2196 64.2918Z" fill="url(#paint1_linear_22728_10177)"/>
<defs>
<linearGradient id="paint0_linear_22728_10177" x1="45.9999" y1="18.457" x2="45.9999" y2="70.3319" gradientUnits="userSpaceOnUse">
<stop stop-color="#EF8080"/>
<stop offset="1" stop-color="#F0145A"/>
</linearGradient>
<linearGradient id="paint1_linear_22728_10177" x1="55.2314" y1="54.1562" x2="55.2314" y2="77.5409" gradientUnits="userSpaceOnUse">
<stop stop-color="#EF8080"/>
<stop offset="1" stop-color="#F0145A"/>
</linearGradient>
</defs>
</symbol>

<symbol id="services6" width="92" height="92" viewBox="0 0 92 92" fill="none">
<rect width="92" height="92" rx="24" fill="white"/>
<path d="M54.352 34.389C55.084 35.121 56.27 35.123 57.002 34.389L59.61 31.781C60.341 31.049 60.339 29.863 59.61 29.13L53.027 22.549C52.297 21.817 51.111 21.817 50.379 22.549L47.77 25.157C47.04 25.889 47.04 27.075 47.77 27.805L54.352 34.389Z" fill="url(#paint0_linear_22728_10183)"/>
<path d="M38.766 50.2652C39.497 50.9942 40.683 50.9942 41.414 50.2652L44.023 47.6553C44.755 46.9253 44.755 45.7383 44.023 45.0063L37.44 38.4233C36.709 37.6933 35.523 37.6913 34.791 38.4233L32.183 41.0312C31.451 41.7632 31.453 42.9492 32.183 43.6812L38.766 50.2652Z" fill="url(#paint1_linear_22728_10183)"/>
<path d="M68.648 50.8912L66.001 48.2412C65.267 47.5112 64.084 47.5112 63.353 48.2412L62.192 49.4012L50.987 38.1942L53.414 35.7662L46.681 29.0352L44.253 31.4632L41.161 34.5532L38.787 36.9272L45.519 43.6602L47.896 41.2872L59.099 52.4922L58.051 53.5412C57.319 54.2702 57.317 55.4572 58.051 56.1892L60.698 58.8372C61.432 59.5712 62.617 59.5712 63.348 58.8372L68.647 53.5402C69.38 52.8072 69.38 51.6232 68.648 50.8912Z" fill="url(#paint2_linear_22728_10183)"/>
<path d="M49.077 58.9425C49.077 57.7435 48.105 56.7695 46.904 56.7695H29.936C28.736 56.7695 27.763 57.7435 27.763 58.9425V62.4695H23V69.8585H53.558V62.4695H49.077V58.9425Z" fill="url(#paint3_linear_22728_10183)"/>
<defs>
<linearGradient id="paint0_linear_22728_10183" x1="53.69" y1="22" x2="53.69" y2="34.9388" gradientUnits="userSpaceOnUse">
<stop stop-color="#EF8080"/>
<stop offset="1" stop-color="#F0145A"/>
</linearGradient>
<linearGradient id="paint1_linear_22728_10183" x1="38.1034" y1="37.875" x2="38.1034" y2="50.812" gradientUnits="userSpaceOnUse">
<stop stop-color="#EF8080"/>
<stop offset="1" stop-color="#F0145A"/>
</linearGradient>
<linearGradient id="paint2_linear_22728_10183" x1="53.9919" y1="29.0352" x2="53.9919" y2="59.3877" gradientUnits="userSpaceOnUse">
<stop stop-color="#EF8080"/>
<stop offset="1" stop-color="#F0145A"/>
</linearGradient>
<linearGradient id="paint3_linear_22728_10183" x1="38.279" y1="56.7695" x2="38.279" y2="69.8585" gradientUnits="userSpaceOnUse">
<stop stop-color="#EF8080"/>
<stop offset="1" stop-color="#F0145A"/>
</linearGradient>
</defs>
</symbol>

<symbol id="comand" width="99" height="17" viewBox="0 0 99 17" fill="none">
<path d="M5.012 10.052H3.444V14H1.19V4.2H3.444V8.162H5.068L7.644 4.2H10.038L6.832 8.932L10.136 14H7.56L5.012 10.052ZM16.8335 14.168C15.8161 14.168 14.8968 13.9487 14.0755 13.51C13.2635 13.0713 12.6241 12.4693 12.1575 11.704C11.7001 10.9293 11.4715 10.0613 11.4715 9.1C11.4715 8.13867 11.7001 7.27533 12.1575 6.51C12.6241 5.73533 13.2635 5.12867 14.0755 4.69C14.8968 4.25133 15.8161 4.032 16.8335 4.032C17.8508 4.032 18.7655 4.25133 19.5775 4.69C20.3895 5.12867 21.0288 5.73533 21.4955 6.51C21.9621 7.27533 22.1955 8.13867 22.1955 9.1C22.1955 10.0613 21.9621 10.9293 21.4955 11.704C21.0288 12.4693 20.3895 13.0713 19.5775 13.51C18.7655 13.9487 17.8508 14.168 16.8335 14.168ZM16.8335 12.236C17.4121 12.236 17.9348 12.1053 18.4015 11.844C18.8681 11.5733 19.2321 11.2 19.4935 10.724C19.7641 10.248 19.8995 9.70667 19.8995 9.1C19.8995 8.49333 19.7641 7.952 19.4935 7.476C19.2321 7 18.8681 6.63133 18.4015 6.37C17.9348 6.09933 17.4121 5.964 16.8335 5.964C16.2548 5.964 15.7321 6.09933 15.2655 6.37C14.7988 6.63133 14.4301 7 14.1595 7.476C13.8981 7.952 13.7675 8.49333 13.7675 9.1C13.7675 9.70667 13.8981 10.248 14.1595 10.724C14.4301 11.2 14.7988 11.5733 15.2655 11.844C15.7321 12.1053 16.2548 12.236 16.8335 12.236ZM33.8606 14L33.8466 8.134L30.9626 12.964H29.9546L27.0706 8.246V14H24.9426V4.2H26.8186L30.4866 10.29L34.0986 4.2H35.9746L35.9886 14H33.8606ZM46.0591 11.9H41.5091L40.6411 14H38.3171L42.6851 4.2H44.9251L49.3071 14H46.9271L46.0591 11.9ZM45.3451 10.178L43.7911 6.426L42.2371 10.178H45.3451ZM60.5947 4.2V14H58.3267V9.982H53.8747V14H51.6067V4.2H53.8747V8.064H58.3267V4.2H60.5947ZM74.0897 12.152V16.03H71.9897V14H65.0737V16.03H62.9737L62.9877 12.152H63.3797C63.9677 12.1333 64.383 11.704 64.6257 10.864C64.8683 10.024 65.0177 8.82467 65.0737 7.266L65.1857 4.2H72.7177V12.152H74.0897ZM67.0757 7.476C67.029 8.64267 66.931 9.62267 66.7817 10.416C66.6323 11.2 66.4037 11.7787 66.0957 12.152H70.4777V6.048H67.1177L67.0757 7.476ZM83.3345 11.9H78.7845L77.9165 14H75.5925L79.9605 4.2H82.2005L86.5825 14H84.2025L83.3345 11.9ZM82.6205 10.178L81.0665 6.426L79.5125 10.178H82.6205Z" fill="currentColor"/>
<path d="M90.5 4L95 8.5L90.5 13" stroke="currentColor" stroke-width="2"/>
</symbol>

<symbol id="publications" width="136" height="17" viewBox="0 0 136 17" fill="none">
<path d="M5.404 4.2C6.272 4.2 7.02333 4.34467 7.658 4.634C8.302 4.92333 8.79667 5.334 9.142 5.866C9.48733 6.398 9.66 7.028 9.66 7.756C9.66 8.47467 9.48733 9.10467 9.142 9.646C8.79667 10.178 8.302 10.5887 7.658 10.878C7.02333 11.158 6.272 11.298 5.404 11.298H3.43V14H1.162V4.2H5.404ZM5.278 9.45C5.95933 9.45 6.47733 9.30533 6.832 9.016C7.18667 8.71733 7.364 8.29733 7.364 7.756C7.364 7.20533 7.18667 6.78533 6.832 6.496C6.47733 6.19733 5.95933 6.048 5.278 6.048H3.43V9.45H5.278ZM16.5922 14.168C15.1922 14.168 14.1002 13.7807 13.3162 13.006C12.5415 12.2313 12.1542 11.1253 12.1542 9.688V4.2H14.4222V9.604C14.4222 11.3587 15.1502 12.236 16.6062 12.236C17.3155 12.236 17.8568 12.026 18.2302 11.606C18.6035 11.1767 18.7902 10.5093 18.7902 9.604V4.2H21.0302V9.688C21.0302 11.1253 20.6382 12.2313 19.8542 13.006C19.0795 13.7807 17.9922 14.168 16.5922 14.168ZM31.4674 8.904C32.0274 9.08133 32.466 9.38 32.7834 9.8C33.1007 10.2107 33.2594 10.7193 33.2594 11.326C33.2594 12.1847 32.9234 12.8473 32.2514 13.314C31.5887 13.7713 30.618 14 29.3394 14H24.2714V4.2H29.0594C30.254 4.2 31.1687 4.42867 31.8034 4.886C32.4474 5.34333 32.7694 5.964 32.7694 6.748C32.7694 7.224 32.6527 7.64867 32.4194 8.022C32.1954 8.39533 31.878 8.68933 31.4674 8.904ZM26.5254 5.908V8.218H28.7794C29.3394 8.218 29.764 8.12 30.0534 7.924C30.3427 7.728 30.4874 7.43867 30.4874 7.056C30.4874 6.67333 30.3427 6.38867 30.0534 6.202C29.764 6.006 29.3394 5.908 28.7794 5.908H26.5254ZM29.1714 12.292C29.7687 12.292 30.2167 12.194 30.5154 11.998C30.8234 11.802 30.9774 11.4987 30.9774 11.088C30.9774 10.276 30.3754 9.87 29.1714 9.87H26.5254V12.292H29.1714ZM35.9765 4.2H38.2445V12.152H43.1585V14H35.9765V4.2ZM45.4257 4.2H47.6937V14H45.4257V4.2ZM55.7094 14.168C54.7108 14.168 53.8054 13.9533 52.9934 13.524C52.1908 13.0853 51.5561 12.4833 51.0894 11.718C50.6321 10.9433 50.4034 10.0707 50.4034 9.1C50.4034 8.12933 50.6321 7.26133 51.0894 6.496C51.5561 5.72133 52.1908 5.11933 52.9934 4.69C53.8054 4.25133 54.7154 4.032 55.7234 4.032C56.5728 4.032 57.3381 4.18133 58.0194 4.48C58.7101 4.77867 59.2888 5.208 59.7554 5.768L58.2994 7.112C57.6368 6.34667 56.8154 5.964 55.8354 5.964C55.2288 5.964 54.6874 6.09933 54.2114 6.37C53.7354 6.63133 53.3621 7 53.0914 7.476C52.8301 7.952 52.6994 8.49333 52.6994 9.1C52.6994 9.70667 52.8301 10.248 53.0914 10.724C53.3621 11.2 53.7354 11.5733 54.2114 11.844C54.6874 12.1053 55.2288 12.236 55.8354 12.236C56.8154 12.236 57.6368 11.8487 58.2994 11.074L59.7554 12.418C59.2888 12.9873 58.7101 13.4213 58.0194 13.72C57.3288 14.0187 56.5588 14.168 55.7094 14.168ZM68.5496 11.9H63.9996L63.1316 14H60.8076L65.1756 4.2H67.4156L71.7976 14H69.4176L68.5496 11.9ZM67.8356 10.178L66.2816 6.426L64.7276 10.178H67.8356ZM75.3522 6.048H72.2162V4.2H80.7562V6.048H77.6202V14H75.3522V6.048ZM82.9765 4.2H85.2445V14H82.9765V4.2ZM93.3162 14.168C92.2989 14.168 91.3795 13.9487 90.5582 13.51C89.7462 13.0713 89.1069 12.4693 88.6402 11.704C88.1829 10.9293 87.9542 10.0613 87.9542 9.1C87.9542 8.13867 88.1829 7.27533 88.6402 6.51C89.1069 5.73533 89.7462 5.12867 90.5582 4.69C91.3795 4.25133 92.2989 4.032 93.3162 4.032C94.3335 4.032 95.2482 4.25133 96.0602 4.69C96.8722 5.12867 97.5115 5.73533 97.9782 6.51C98.4449 7.27533 98.6782 8.13867 98.6782 9.1C98.6782 10.0613 98.4449 10.9293 97.9782 11.704C97.5115 12.4693 96.8722 13.0713 96.0602 13.51C95.2482 13.9487 94.3335 14.168 93.3162 14.168ZM93.3162 12.236C93.8949 12.236 94.4175 12.1053 94.8842 11.844C95.3509 11.5733 95.7149 11.2 95.9762 10.724C96.2469 10.248 96.3822 9.70667 96.3822 9.1C96.3822 8.49333 96.2469 7.952 95.9762 7.476C95.7149 7 95.3509 6.63133 94.8842 6.37C94.4175 6.09933 93.8949 5.964 93.3162 5.964C92.7375 5.964 92.2149 6.09933 91.7482 6.37C91.2815 6.63133 90.9129 7 90.6422 7.476C90.3809 7.952 90.2502 8.49333 90.2502 9.1C90.2502 9.70667 90.3809 10.248 90.6422 10.724C90.9129 11.2 91.2815 11.5733 91.7482 11.844C92.2149 12.1053 92.7375 12.236 93.3162 12.236ZM110.371 4.2V14H108.509L103.623 8.05V14H101.383V4.2H103.259L108.131 10.15V4.2H110.371ZM116.909 14.168C116.135 14.168 115.383 14.0653 114.655 13.86C113.937 13.6453 113.358 13.37 112.919 13.034L113.689 11.326C114.109 11.634 114.609 11.8813 115.187 12.068C115.766 12.2547 116.345 12.348 116.923 12.348C117.567 12.348 118.043 12.2547 118.351 12.068C118.659 11.872 118.813 11.6153 118.813 11.298C118.813 11.0647 118.72 10.8733 118.533 10.724C118.356 10.5653 118.123 10.4393 117.833 10.346C117.553 10.2527 117.171 10.15 116.685 10.038C115.939 9.86067 115.327 9.68333 114.851 9.506C114.375 9.32867 113.965 9.044 113.619 8.652C113.283 8.26 113.115 7.73733 113.115 7.084C113.115 6.51467 113.269 6.00133 113.577 5.544C113.885 5.07733 114.347 4.70867 114.963 4.438C115.589 4.16733 116.349 4.032 117.245 4.032C117.871 4.032 118.482 4.10667 119.079 4.256C119.677 4.40533 120.199 4.62 120.647 4.9L119.947 6.622C119.042 6.10867 118.137 5.852 117.231 5.852C116.597 5.852 116.125 5.95467 115.817 6.16C115.519 6.36533 115.369 6.636 115.369 6.972C115.369 7.308 115.542 7.56 115.887 7.728C116.242 7.88667 116.779 8.04533 117.497 8.204C118.244 8.38133 118.855 8.55867 119.331 8.736C119.807 8.91333 120.213 9.19333 120.549 9.576C120.895 9.95867 121.067 10.4767 121.067 11.13C121.067 11.69 120.909 12.2033 120.591 12.67C120.283 13.1273 119.817 13.4913 119.191 13.762C118.566 14.0327 117.805 14.168 116.909 14.168Z" fill="CurrentColor"/>
<path d="M127.5 4L132 8.5L127.5 13" stroke="currentColor" stroke-width="2"/>
</symbol>

<symbol id="facebook_b" width="38" height="38" viewBox="0 0 38 38" fill="none">
<g clip-path="url(#clip0_180127_860)">
<path d="M38 19.1161C38 8.55857 29.4934 0 19 0C8.50658 0 0 8.55857 0 19.1161C0 28.6575 6.94803 36.5659 16.0312 38V24.6419H11.207V19.1161H16.0312V14.9046C16.0312 10.1136 18.8678 7.46723 23.2078 7.46723C25.2866 7.46723 27.4609 7.84059 27.4609 7.84059V12.545H25.0651C22.7048 12.545 21.9688 14.0185 21.9688 15.5302V19.1161H27.2383L26.3959 24.6419H21.9688V38C31.052 36.5659 38 28.6575 38 19.1161Z" fill="currentColor"/>
</g>
<defs>
<clipPath id="clip0_180127_860">
<rect width="38" height="38" fill="currentColor"/>
</clipPath>
</defs>
</symbol>

<!-- ABOUT -->
<symbol id="logo_about" width="318" height="60" viewBox="0 0 318 60" fill="none">
<g clip-path="url(#clip0_180277_97)">
<path d="M4.95672 0H0V35.7986H4.95672V22.5177C4.95672 20.2709 5.51557 18.4984 6.63326 17.2502C7.75095 16.002 9.2817 15.353 11.1769 15.353C12.8049 15.353 14.1655 15.9521 15.2589 17.1004C16.3523 18.2738 16.9112 19.7466 16.9112 21.5191V35.8236H21.8922V21.5191C21.8922 18.2238 20.9932 15.6276 19.1951 13.6804C17.3971 11.7332 15.0402 10.7596 12.1731 10.7596C11.347 10.7596 10.5209 10.8594 9.71906 11.0841C8.89294 11.3088 8.2369 11.5584 7.70235 11.833C7.16781 12.1076 6.65756 12.4072 6.1959 12.7567C5.73424 13.1062 5.41838 13.3558 5.27259 13.5056C5.1268 13.6554 5.00532 13.7552 4.95672 13.8301V0Z" fill="#F0145A"/>
<path d="M32.9726 0H27.8628V35.7689H32.9726V0Z" fill="#323264"/>
<path d="M63.1114 25.2933L63.3669 22.7383C63.3669 19.3148 62.2428 16.4532 59.9433 14.1538C57.6439 11.8544 54.7824 10.7302 51.3588 10.7302C47.9352 10.7302 44.9715 11.9566 42.5188 14.4093C40.0661 16.862 38.8397 19.7746 38.8397 23.2493C38.8397 26.8262 40.1172 29.8921 42.621 32.447C45.1248 35.002 48.1396 36.2794 51.6143 36.2794C52.9429 36.2794 54.1692 36.075 55.3956 35.7173C56.6219 35.3086 57.6439 34.8998 58.3593 34.491C59.1258 34.0311 59.8922 33.5201 60.5565 32.958C61.2208 32.3959 61.6807 31.9872 61.8851 31.7317C62.0895 31.4762 62.2428 31.3229 62.345 31.1696L59.0236 27.8482L58.2571 28.8191C57.7461 29.4322 56.8774 30.0454 55.6511 30.7097C54.3736 31.374 53.0451 31.6806 51.6143 31.6806C49.6215 31.6806 47.9352 31.0674 46.5045 29.7899C45.0737 28.5125 44.205 27.0306 43.9495 25.2933H63.1114ZM51.3588 15.0736C53.2494 15.0736 54.7824 15.6357 56.0599 16.7087C57.2862 17.8329 58.0527 19.2126 58.3593 20.9499H44.1539C44.6138 19.2126 45.4314 17.8329 46.7089 16.7087C47.9352 15.6357 49.5193 15.0736 51.3588 15.0736Z" fill="#323264"/>
<path d="M86.9429 34.2866C86.9429 36.5349 86.2786 38.3744 84.8989 39.8052C83.5704 41.1849 81.8841 41.9002 79.7891 41.9002C78.8693 41.9002 77.9496 41.7469 77.0809 41.4914C76.2122 41.2359 75.5479 40.9294 74.9859 40.5717C74.4238 40.214 73.9128 39.8563 73.4018 39.3964C72.9419 38.9365 72.6353 38.6299 72.482 38.4766C72.3287 38.3233 72.2265 38.17 72.1244 38.0679L68.803 41.3892L69.2117 41.9002C69.4672 42.2579 69.9271 42.7178 70.5403 43.2288C71.1535 43.6887 71.8689 44.1997 72.6864 44.7106C73.504 45.1705 74.526 45.5793 75.8034 45.937C77.0809 46.2947 78.4094 46.4991 79.7891 46.4991C83.2638 46.4991 86.1253 45.3238 88.5269 42.9733C90.8774 40.5717 92.0527 37.7102 92.0527 34.2355V11.2412H86.9429V13.7961L86.0742 13.0297C85.5121 12.5187 84.6435 12.0077 83.4171 11.4967C82.1907 10.9857 80.8622 10.7302 79.5336 10.7302C76.4166 10.7302 73.7595 11.9055 71.4601 14.3071C69.1606 16.7087 68.0365 19.5702 68.0365 22.9938C68.0365 26.4174 69.1606 29.2789 71.4601 31.6806C73.7595 34.0822 76.4166 35.2574 79.5336 35.2574C80.4023 35.2574 81.2199 35.1552 82.0885 34.9509C82.9061 34.6954 83.5704 34.4399 84.1325 34.1844C84.6945 33.9289 85.2055 33.6223 85.6654 33.2646C86.1253 32.9069 86.483 32.6514 86.5852 32.5492L86.9429 32.1915V34.2866ZM73.1463 22.9938C73.1463 20.8477 73.8106 19.0593 75.1903 17.5774C76.5699 16.0956 78.2051 15.3291 80.0446 15.3291C81.8841 15.3291 83.5193 16.0956 84.8989 17.5774C86.2275 19.0593 86.9429 20.8477 86.9429 22.9938C86.9429 25.14 86.2275 26.9284 84.8989 28.4103C83.5193 29.8921 81.8841 30.6586 80.0446 30.6586C78.2051 30.6586 76.5699 29.8921 75.1903 28.4103C73.8106 26.9284 73.1463 25.14 73.1463 22.9938Z" fill="#323264"/>
<path d="M118.724 35.7684V19.9279C118.724 17.3219 117.753 15.1247 115.863 13.3873C113.972 11.5989 111.519 10.7302 108.504 10.7302C107.329 10.7302 106.154 10.8835 105.03 11.1901C103.906 11.5478 102.986 11.9055 102.321 12.3143C101.657 12.7231 100.993 13.1829 100.38 13.745C99.7666 14.256 99.4089 14.6137 99.2045 14.8181C99.0512 15.0225 98.8979 15.1758 98.7957 15.3291L102.117 18.6505L102.781 17.7818C103.19 17.2197 103.906 16.7087 104.979 16.1467C106.052 15.5846 107.227 15.3291 108.504 15.3291C109.986 15.3291 111.213 15.789 112.183 16.6576C113.154 17.5263 113.614 18.6505 113.614 19.9279L104.672 21.4609C102.475 21.8186 100.686 22.6872 99.46 24.0669C98.1825 25.4466 97.5182 27.1328 97.5182 29.1256C97.5182 31.0163 98.3358 32.6514 99.971 34.0822C101.657 35.564 103.701 36.2794 106.205 36.2794C107.074 36.2794 107.891 36.1772 108.709 35.9217C109.577 35.7173 110.242 35.4618 110.804 35.2064C111.366 34.9509 111.877 34.6443 112.337 34.2866C112.797 33.9289 113.103 33.6734 113.308 33.5712C113.461 33.4179 113.563 33.2646 113.614 33.2135V35.7684H118.724ZM106.971 31.6806C105.643 31.6806 104.57 31.374 103.803 30.7608C102.986 30.1476 102.628 29.4322 102.628 28.6147C102.628 27.746 102.884 26.9795 103.446 26.4174C104.008 25.8554 104.774 25.4466 105.694 25.2933L113.614 24.0158V24.5268C113.614 26.8262 113.052 28.5636 111.877 29.841C110.702 31.0674 109.066 31.6806 106.971 31.6806Z" fill="#323264"/>
<path d="M130 0H124.89V35.7689H130V0Z" fill="#323264"/>
<path d="M0 53.1185H1.59915V58.7253H5.06396V60.0283H0V53.1185Z" fill="#323264"/>
<path d="M15.5016 58.5477H12.2934L11.6814 60.0283H10.0428L13.1226 53.1185H14.702L17.7917 60.0283H16.1136L15.5016 58.5477ZM14.9982 57.3335L13.9025 54.688L12.8067 57.3335H14.9982Z" fill="#323264"/>
<path d="M33.5121 53.1185L31.2516 60.0283H29.534L28.0138 55.3494L26.4443 60.0283H24.7366L22.4662 53.1185H24.1245L25.6842 57.9751L27.313 53.1185H28.7937L30.3731 58.0146L31.9821 53.1185H33.5121Z" fill="#323264"/>
<path d="M50.5232 60.1468C49.819 60.1468 49.1807 59.9954 48.6082 59.6927C48.0422 59.3834 47.5947 58.959 47.2657 58.4193C46.9432 57.8731 46.782 57.2578 46.782 56.5734C46.782 55.889 46.9432 55.277 47.2657 54.7373C47.5947 54.1911 48.0422 53.7667 48.6082 53.464C49.1807 53.1547 49.8223 53 50.5331 53C51.1319 53 51.6716 53.1053 52.152 53.3159C52.6389 53.5265 53.0469 53.8292 53.376 54.224L52.3494 55.1717C51.8821 54.6321 51.303 54.3622 50.612 54.3622C50.1843 54.3622 49.8026 54.4577 49.467 54.6485C49.1313 54.8328 48.8681 55.0927 48.6773 55.4283C48.493 55.764 48.4009 56.1456 48.4009 56.5734C48.4009 57.0012 48.493 57.3828 48.6773 57.7185C48.8681 58.0541 49.1313 58.3173 49.467 58.5082C49.8026 58.6924 50.1843 58.7846 50.612 58.7846C51.303 58.7846 51.8821 58.5115 52.3494 57.9653L53.376 58.9129C53.0469 59.3143 52.6389 59.6203 52.152 59.8309C51.665 60.0415 51.1221 60.1468 50.5232 60.1468Z" fill="#323264"/>
<path d="M62.5933 60.1468C61.876 60.1468 61.2278 59.9922 60.6487 59.6829C60.0761 59.3736 59.6253 58.9491 59.2963 58.4095C58.9738 57.8632 58.8126 57.2512 58.8126 56.5734C58.8126 55.8956 58.9738 55.2868 59.2963 54.7472C59.6253 54.201 60.0761 53.7733 60.6487 53.464C61.2278 53.1547 61.876 53 62.5933 53C63.3106 53 63.9555 53.1547 64.5281 53.464C65.1006 53.7733 65.5514 54.201 65.8804 54.7472C66.2095 55.2868 66.374 55.8956 66.374 56.5734C66.374 57.2512 66.2095 57.8632 65.8804 58.4095C65.5514 58.9491 65.1006 59.3736 64.5281 59.6829C63.9555 59.9922 63.3106 60.1468 62.5933 60.1468ZM62.5933 58.7846C63.0013 58.7846 63.3698 58.6924 63.6989 58.5082C64.0279 58.3173 64.2846 58.0541 64.4688 57.7185C64.6597 57.3828 64.7551 57.0012 64.7551 56.5734C64.7551 56.1456 64.6597 55.764 64.4688 55.4283C64.2846 55.0927 64.0279 54.8328 63.6989 54.6485C63.3698 54.4577 63.0013 54.3622 62.5933 54.3622C62.1853 54.3622 61.8168 54.4577 61.4877 54.6485C61.1587 54.8328 60.8987 55.0927 60.7079 55.4283C60.5236 55.764 60.4315 56.1456 60.4315 56.5734C60.4315 57.0012 60.5236 57.3828 60.7079 57.7185C60.8987 58.0541 61.1587 58.3173 61.4877 58.5082C61.8168 58.6924 62.1853 58.7846 62.5933 58.7846Z" fill="#323264"/>
<path d="M78.7995 60.0283L78.7896 55.8824L76.7561 59.2979H76.0355L74.0119 55.9713V60.0283H72.5115V53.1185H73.8342L76.4205 57.4125L78.9673 53.1185H80.2802L80.2999 60.0283H78.7995Z" fill="#323264"/>
<path d="M89.8659 53.1185C90.478 53.1185 91.0077 53.2205 91.4552 53.4245C91.9093 53.6285 92.2581 53.918 92.5016 54.2931C92.7451 54.6682 92.8668 55.1125 92.8668 55.6258C92.8668 56.1325 92.7451 56.5767 92.5016 56.9584C92.2581 57.3335 91.9093 57.623 91.4552 57.8271C91.0077 58.0245 90.478 58.1232 89.8659 58.1232H88.4741V60.0283H86.8749V53.1185H89.8659ZM89.7771 56.8202C90.2575 56.8202 90.6227 56.7182 90.8728 56.5142C91.1229 56.3036 91.2479 56.0074 91.2479 55.6258C91.2479 55.2375 91.1229 54.9414 90.8728 54.7373C90.6227 54.5268 90.2575 54.4215 89.7771 54.4215H88.4741V56.8202H89.7771Z" fill="#323264"/>
<path d="M103.148 58.5477H99.9396L99.3276 60.0283H97.6889L100.769 53.1185H102.348L105.438 60.0283H103.76L103.148 58.5477ZM102.644 57.3335L101.549 54.688L100.453 57.3335H102.644Z" fill="#323264"/>
<path d="M117.428 53.1185V60.0283H116.115L112.67 55.8331V60.0283H111.09V53.1185H112.413L115.848 57.3137V53.1185H117.428Z" fill="#323264"/>
<path d="M127.315 57.5803V60.0283H125.716V57.5605L123.041 53.1185H124.739L126.585 56.1884L128.43 53.1185H130L127.315 57.5803Z" fill="#323264"/>
<path fill-rule="evenodd" clip-rule="evenodd" d="M149.175 0H155L139.825 47H134L149.175 0Z" fill="#F0145A"/>
<path d="M174.408 35V30.824L174.3 30.14V23.156C174.3 21.548 173.844 20.312 172.932 19.448C172.044 18.584 170.712 18.152 168.936 18.152C167.712 18.152 166.548 18.356 165.444 18.764C164.34 19.172 163.404 19.712 162.636 20.384L161.484 18.476C162.444 17.66 163.596 17.036 164.94 16.604C166.284 16.148 167.7 15.92 169.188 15.92C171.636 15.92 173.52 16.532 174.84 17.756C176.184 18.956 176.856 20.792 176.856 23.264V35H174.408ZM167.892 35.18C166.476 35.18 165.24 34.952 164.184 34.496C163.152 34.016 162.36 33.368 161.808 32.552C161.256 31.712 160.98 30.752 160.98 29.672C160.98 28.688 161.208 27.8 161.664 27.008C162.144 26.192 162.912 25.544 163.968 25.064C165.048 24.56 166.488 24.308 168.288 24.308H174.804V26.216H168.36C166.536 26.216 165.264 26.54 164.544 27.188C163.848 27.836 163.5 28.64 163.5 29.6C163.5 30.68 163.92 31.544 164.76 32.192C165.6 32.84 166.776 33.164 168.288 33.164C169.728 33.164 170.964 32.84 171.996 32.192C173.052 31.52 173.82 30.56 174.3 29.312L174.876 31.076C174.396 32.324 173.556 33.32 172.356 34.064C171.18 34.808 169.692 35.18 167.892 35.18ZM193.554 35.18C191.898 35.18 190.41 34.808 189.09 34.064C187.77 33.296 186.726 32.192 185.958 30.752C185.19 29.312 184.806 27.572 184.806 25.532C184.806 23.468 185.19 21.728 185.958 20.312C186.75 18.872 187.806 17.78 189.126 17.036C190.446 16.292 191.922 15.92 193.554 15.92C195.354 15.92 196.962 16.328 198.378 17.144C199.818 17.936 200.946 19.052 201.762 20.492C202.578 21.932 202.986 23.612 202.986 25.532C202.986 27.428 202.578 29.108 201.762 30.572C200.946 32.012 199.818 33.14 198.378 33.956C196.962 34.772 195.354 35.18 193.554 35.18ZM183.798 35V8.288H186.354V21.68L185.994 25.496L186.246 29.312V35H183.798ZM193.374 32.912C194.718 32.912 195.918 32.612 196.974 32.012C198.03 31.388 198.87 30.524 199.494 29.42C200.118 28.292 200.43 26.996 200.43 25.532C200.43 24.044 200.118 22.748 199.494 21.644C198.87 20.54 198.03 19.688 196.974 19.088C195.918 18.464 194.718 18.152 193.374 18.152C192.03 18.152 190.818 18.464 189.738 19.088C188.682 19.688 187.842 20.54 187.218 21.644C186.618 22.748 186.318 24.044 186.318 25.532C186.318 26.996 186.618 28.292 187.218 29.42C187.842 30.524 188.682 31.388 189.738 32.012C190.818 32.612 192.03 32.912 193.374 32.912ZM215.901 35.18C214.077 35.18 212.433 34.772 210.969 33.956C209.529 33.116 208.389 31.976 207.549 30.536C206.709 29.072 206.289 27.404 206.289 25.532C206.289 23.636 206.709 21.968 207.549 20.528C208.389 19.088 209.529 17.96 210.969 17.144C212.409 16.328 214.053 15.92 215.901 15.92C217.773 15.92 219.429 16.328 220.869 17.144C222.333 17.96 223.473 19.088 224.289 20.528C225.129 21.968 225.549 23.636 225.549 25.532C225.549 27.404 225.129 29.072 224.289 30.536C223.473 31.976 222.333 33.116 220.869 33.956C219.405 34.772 217.749 35.18 215.901 35.18ZM215.901 32.912C217.269 32.912 218.481 32.612 219.537 32.012C220.593 31.388 221.421 30.524 222.021 29.42C222.645 28.292 222.957 26.996 222.957 25.532C222.957 24.044 222.645 22.748 222.021 21.644C221.421 20.54 220.593 19.688 219.537 19.088C218.481 18.464 217.281 18.152 215.937 18.152C214.593 18.152 213.393 18.464 212.337 19.088C211.281 19.688 210.441 20.54 209.817 21.644C209.193 22.748 208.881 24.044 208.881 25.532C208.881 26.996 209.193 28.292 209.817 29.42C210.441 30.524 211.281 31.388 212.337 32.012C213.393 32.612 214.581 32.912 215.901 32.912ZM238.579 35.18C236.971 35.18 235.567 34.88 234.367 34.28C233.167 33.68 232.231 32.78 231.559 31.58C230.911 30.38 230.587 28.88 230.587 27.08V16.1H233.143V26.792C233.143 28.808 233.635 30.332 234.619 31.364C235.627 32.372 237.031 32.876 238.831 32.876C240.151 32.876 241.291 32.612 242.251 32.084C243.235 31.532 243.979 30.74 244.483 29.708C245.011 28.676 245.275 27.44 245.275 26V16.1H247.831V35H245.383V29.816L245.779 30.752C245.179 32.144 244.243 33.236 242.971 34.028C241.723 34.796 240.259 35.18 238.579 35.18ZM260.931 35.18C259.155 35.18 257.787 34.7 256.827 33.74C255.867 32.78 255.387 31.424 255.387 29.672V11.924H257.943V29.528C257.943 30.632 258.219 31.484 258.771 32.084C259.347 32.684 260.163 32.984 261.219 32.984C262.347 32.984 263.283 32.66 264.027 32.012L264.927 33.848C264.423 34.304 263.811 34.64 263.091 34.856C262.395 35.072 261.675 35.18 260.931 35.18ZM252.003 18.224V16.1H263.703V18.224H252.003ZM286.814 35.18C285.206 35.18 283.802 34.88 282.602 34.28C281.402 33.68 280.466 32.78 279.794 31.58C279.146 30.38 278.822 28.88 278.822 27.08V16.1H281.378V26.792C281.378 28.808 281.87 30.332 282.854 31.364C283.862 32.372 285.266 32.876 287.066 32.876C288.386 32.876 289.526 32.612 290.486 32.084C291.47 31.532 292.214 30.74 292.718 29.708C293.246 28.676 293.51 27.44 293.51 26V16.1H296.066V35H293.617V29.816L294.014 30.752C293.414 32.144 292.478 33.236 291.206 34.028C289.958 34.796 288.494 35.18 286.814 35.18ZM308.265 35.18C306.705 35.18 305.229 34.964 303.837 34.532C302.445 34.076 301.353 33.512 300.561 32.84L301.713 30.824C302.481 31.4 303.465 31.904 304.665 32.336C305.865 32.744 307.125 32.948 308.445 32.948C310.245 32.948 311.541 32.672 312.333 32.12C313.125 31.544 313.521 30.788 313.521 29.852C313.521 29.156 313.293 28.616 312.837 28.232C312.405 27.824 311.829 27.524 311.109 27.332C310.389 27.116 309.585 26.936 308.697 26.792C307.809 26.648 306.921 26.48 306.033 26.288C305.169 26.096 304.377 25.82 303.657 25.46C302.937 25.076 302.349 24.56 301.893 23.912C301.461 23.264 301.245 22.4 301.245 21.32C301.245 20.288 301.533 19.364 302.109 18.548C302.685 17.732 303.525 17.096 304.629 16.64C305.757 16.16 307.125 15.92 308.733 15.92C309.957 15.92 311.181 16.088 312.405 16.424C313.629 16.736 314.637 17.156 315.429 17.684L314.313 19.736C313.473 19.16 312.573 18.752 311.613 18.512C310.653 18.248 309.693 18.116 308.733 18.116C307.029 18.116 305.769 18.416 304.953 19.016C304.161 19.592 303.765 20.336 303.765 21.248C303.765 21.968 303.981 22.532 304.413 22.94C304.869 23.348 305.457 23.672 306.177 23.912C306.921 24.128 307.725 24.308 308.589 24.452C309.477 24.596 310.353 24.776 311.217 24.992C312.105 25.184 312.909 25.46 313.629 25.82C314.373 26.156 314.961 26.648 315.393 27.296C315.849 27.92 316.077 28.748 316.077 29.78C316.077 30.884 315.765 31.844 315.141 32.66C314.541 33.452 313.653 34.076 312.477 34.532C311.325 34.964 309.921 35.18 308.265 35.18Z" fill="#323264"/>
</g>
<defs>
<clipPath id="clip0_180277_97">
<rect width="318" height="60" fill="white"/>
</clipPath>
</defs>
</symbol>

<symbol id="flag" width="101" height="44" viewBox="0 0 101 44" fill="none">
<g clip-path="url(#clip0_22715_6159)">
<path d="M27.1135 12.3054C26.9445 12.1374 26.7455 12.0529 26.5155 12.0529C26.401 12.0529 26.1595 12.1469 25.7925 12.3324C25.425 12.5184 25.035 12.7254 24.6245 12.9564C24.213 13.1859 23.726 13.3939 23.164 13.5799C22.6025 13.7654 22.0825 13.8594 21.604 13.8594C21.162 13.8594 20.772 13.7754 20.436 13.6069C19.3215 13.0849 18.352 12.6954 17.529 12.4384C16.706 12.1819 15.821 12.0529 14.8735 12.0529C13.2375 12.0529 11.374 12.5849 9.285 13.6469C8.854 13.8619 8.545 14.0284 8.345 14.1504L8.1465 12.6949C8.595 12.3054 8.8845 11.7379 8.8845 11.0974C8.8845 9.9239 7.9335 8.9729 6.76 8.9729C5.5865 8.9729 4.6355 9.9239 4.6355 11.0974C4.6355 11.8629 5.0445 12.5284 5.6515 12.9024L8.5215 33.9474C8.607 34.5739 9.143 35.0284 9.7585 35.0284C9.8145 35.0284 9.8715 35.0249 9.929 35.0174C10.613 34.9234 11.092 34.2939 10.9985 33.6099L9.845 25.1514C11.938 24.1129 13.7485 23.5894 15.2715 23.5894C15.918 23.5894 16.5485 23.6859 17.163 23.8809C17.778 24.0764 18.2895 24.2884 18.6965 24.5179C19.1035 24.7479 19.584 24.9609 20.1365 25.1549C20.69 25.3499 21.2365 25.4474 21.776 25.4474C23.139 25.4474 24.7715 24.9339 26.674 23.9074C26.913 23.7834 27.088 23.6614 27.1985 23.5419C27.309 23.4224 27.3645 23.2524 27.3645 23.0314V12.9029C27.3645 12.6734 27.281 12.4739 27.1135 12.3054Z" fill="#F0145A"/>
<path d="M51.5127 9.8V35H45.6807V14.48H40.6407V9.8H51.5127ZM66.6903 35.432C64.6023 35.432 62.7423 34.916 61.1103 33.884C59.4783 32.852 58.1943 31.364 57.2583 29.42C56.3463 27.452 55.8903 25.112 55.8903 22.4C55.8903 19.688 56.3463 17.36 57.2583 15.416C58.1943 13.448 59.4783 11.948 61.1103 10.916C62.7423 9.884 64.6023 9.368 66.6903 9.368C68.7783 9.368 70.6383 9.884 72.2703 10.916C73.9023 11.948 75.1743 13.448 76.0863 15.416C77.0223 17.36 77.4903 19.688 77.4903 22.4C77.4903 25.112 77.0223 27.452 76.0863 29.42C75.1743 31.364 73.9023 32.852 72.2703 33.884C70.6383 34.916 68.7783 35.432 66.6903 35.432ZM66.6903 30.5C68.2263 30.5 69.4263 29.84 70.2903 28.52C71.1783 27.2 71.6223 25.16 71.6223 22.4C71.6223 19.64 71.1783 17.6 70.2903 16.28C69.4263 14.96 68.2263 14.3 66.6903 14.3C65.1783 14.3 63.9783 14.96 63.0903 16.28C62.2263 17.6 61.7943 19.64 61.7943 22.4C61.7943 25.16 62.2263 27.2 63.0903 28.52C63.9783 29.84 65.1783 30.5 66.6903 30.5ZM98.4285 24.596H92.1645V30.716H87.5205V24.596H81.2925V20.204H87.5205V14.084H92.1645V20.204H98.4285V24.596Z" fill="url(#paint0_linear_22715_6159)"/>
</g>
<defs>
<linearGradient id="paint0_linear_22715_6159" x1="40.4766" y1="12.32" x2="101.072" y2="12.5097" gradientUnits="userSpaceOnUse">
<stop stop-color="#F0145A"/>
<stop offset="1" stop-color="#EF8080"/>
</linearGradient>
<clipPath id="clip0_22715_6159">
<rect width="101" height="44" fill="white"/>
</clipPath>
</defs>
</symbol>

<symbol id="bag" width="108" height="44" viewBox="0 0 108 44" fill="none">
<g clip-path="url(#clip0_22715_6154)">
<path d="M17.232 24.332V23.774C17.232 23.0935 16.6805 22.542 16.0005 22.542C15.32 22.542 14.7685 23.0935 14.7685 23.774V24.332C14.7685 25.0125 15.32 25.564 16.0005 25.564C16.68 25.564 17.232 25.0125 17.232 24.332Z" fill="#F0145A"/>
<path d="M18.077 25.0136C17.804 25.9071 16.9815 26.5631 16.0005 26.5631C15.019 26.5631 14.1965 25.9071 13.9235 25.0136H5.43904C4.90354 25.0136 4.39754 24.8891 3.94354 24.6731V30.3066C3.94354 31.4066 4.84354 32.3066 5.94354 32.3066H26.0565C27.1565 32.3066 28.0565 31.4066 28.0565 30.3066V24.6736C27.602 24.8896 27.0965 25.0141 26.561 25.0141H18.077V25.0136Z" fill="#F0145A"/>
<path d="M26.4775 14.8976H21.677C21.387 13.0846 19.8165 11.6936 17.923 11.6936H14.0765C12.183 11.6936 10.613 13.0846 10.3225 14.8976H5.52253C4.37653 14.8976 3.43903 15.7976 3.43903 16.8976V21.5141C3.43903 22.6186 4.33453 23.5141 5.43903 23.5141H13.829C13.8575 22.9386 14.1045 22.4216 14.495 22.0476C14.507 22.0361 14.521 22.0271 14.5335 22.0161C14.62 21.9366 14.71 21.8616 14.8085 21.7966C14.8435 21.7731 14.8835 21.7571 14.92 21.7361C15.001 21.6896 15.081 21.6411 15.1685 21.6051C15.237 21.5766 15.311 21.5601 15.383 21.5386C15.445 21.5201 15.504 21.4956 15.5685 21.4826C15.708 21.4541 15.8525 21.4391 16 21.4391C16.148 21.4391 16.292 21.4546 16.4315 21.4826C16.4955 21.4956 16.5545 21.5201 16.6165 21.5386C16.6885 21.5601 16.7625 21.5766 16.831 21.6056C16.918 21.6416 16.9975 21.6896 17.0785 21.7361C17.1155 21.7576 17.1555 21.7736 17.191 21.7971C17.2895 21.8616 17.379 21.9366 17.4655 22.0161C17.478 22.0276 17.4925 22.0366 17.5045 22.0486C17.8955 22.4226 18.142 22.9396 18.1705 23.5151H26.5605C27.665 23.5151 28.5605 22.6196 28.5605 21.5151V16.8986C28.561 15.7976 27.6235 14.8976 26.4775 14.8976ZM12.248 14.8976C12.503 14.1271 13.2215 13.5656 14.0765 13.5656H17.923C18.778 13.5656 19.4965 14.1271 19.7515 14.8976H12.248Z" fill="#F0145A"/>
<path d="M53.4612 20.06C55.6692 20.42 57.3612 21.248 58.5372 22.544C59.7132 23.816 60.3012 25.4 60.3012 27.296C60.3012 28.76 59.9172 30.116 59.1492 31.364C58.3812 32.588 57.2052 33.572 55.6212 34.316C54.0612 35.06 52.1412 35.432 49.8612 35.432C48.0852 35.432 46.3332 35.204 44.6052 34.748C42.9012 34.268 41.4492 33.596 40.2492 32.732L42.5172 28.268C43.4772 28.988 44.5812 29.552 45.8292 29.96C47.1012 30.344 48.3972 30.536 49.7172 30.536C51.1812 30.536 52.3332 30.26 53.1732 29.708C54.0132 29.132 54.4332 28.328 54.4332 27.296C54.4332 25.232 52.8612 24.2 49.7172 24.2H47.0532V20.348L52.2372 14.48H41.5092V9.8H59.1492V13.58L53.4612 20.06ZM73.7938 35.432C71.7058 35.432 69.8458 34.916 68.2138 33.884C66.5818 32.852 65.2978 31.364 64.3618 29.42C63.4498 27.452 62.9938 25.112 62.9938 22.4C62.9938 19.688 63.4498 17.36 64.3618 15.416C65.2978 13.448 66.5818 11.948 68.2138 10.916C69.8458 9.884 71.7058 9.368 73.7938 9.368C75.8818 9.368 77.7418 9.884 79.3738 10.916C81.0058 11.948 82.2778 13.448 83.1898 15.416C84.1258 17.36 84.5938 19.688 84.5938 22.4C84.5938 25.112 84.1258 27.452 83.1898 29.42C82.2778 31.364 81.0058 32.852 79.3738 33.884C77.7418 34.916 75.8818 35.432 73.7938 35.432ZM73.7938 30.5C75.3298 30.5 76.5298 29.84 77.3938 28.52C78.2818 27.2 78.7258 25.16 78.7258 22.4C78.7258 19.64 78.2818 17.6 77.3938 16.28C76.5298 14.96 75.3298 14.3 73.7938 14.3C72.2818 14.3 71.0818 14.96 70.1938 16.28C69.3298 17.6 68.8978 19.64 68.8978 22.4C68.8978 25.16 69.3298 27.2 70.1938 28.52C71.0818 29.84 72.2818 30.5 73.7938 30.5ZM105.532 24.596H99.2681V30.716H94.6241V24.596H88.3961V20.204H94.6241V14.084H99.2681V20.204H105.532V24.596Z" fill="url(#paint0_linear_22715_6154)"/>
</g>
<defs>
<linearGradient id="paint0_linear_22715_6154" x1="40.5312" y1="12.32" x2="108.08" y2="12.5557" gradientUnits="userSpaceOnUse">
<stop stop-color="#F0145A"/>
<stop offset="1" stop-color="#EF8080"/>
</linearGradient>
<clipPath id="clip0_22715_6154">
<rect width="108" height="44" fill="white"/>
</clipPath>
</defs>
</symbol>

<symbol id="star" width="132" height="44" viewBox="0 0 132 44" fill="none">
<g clip-path="url(#clip0_22715_6149)">
<path d="M16.097 9.55298C9.25252 9.55298 3.68402 15.1215 3.68402 21.966C3.68402 28.811 9.25252 34.38 16.097 34.38C22.9415 34.38 28.51 28.811 28.51 21.966C28.5105 15.1215 22.942 9.55298 16.097 9.55298ZM22.9555 21.0585V21.059L19.362 23.659L20.746 27.889C20.768 27.955 20.7795 28.0255 20.7795 28.0975C20.7795 28.467 20.4805 28.767 20.111 28.767C19.964 28.767 19.829 28.72 19.719 28.6405L16.0975 26.021L12.476 28.6405C12.366 28.72 12.231 28.767 12.0845 28.767C11.7145 28.767 11.415 28.4675 11.415 28.0975C11.415 28.025 11.427 27.955 11.449 27.889L12.8335 23.659L9.24002 21.059V21.0585C9.07202 20.9375 8.96302 20.74 8.96302 20.517C8.96302 20.1475 9.26202 19.8485 9.63202 19.8485H14.0805L15.458 15.638C15.542 15.3645 15.7965 15.1655 16.098 15.1655C16.399 15.1655 16.654 15.3645 16.7375 15.638L18.115 19.8485H22.5635C22.933 19.8485 23.2325 20.1475 23.2325 20.517C23.232 20.74 23.123 20.9375 22.9555 21.0585Z" fill="#F0145A"/>
<path d="M50.0596 19.268C53.6116 19.268 56.2276 19.976 57.9076 21.392C59.6116 22.808 60.4636 24.704 60.4636 27.08C60.4636 28.616 60.0796 30.02 59.3116 31.292C58.5436 32.54 57.3676 33.548 55.7836 34.316C54.2236 35.06 52.2916 35.432 49.9876 35.432C48.2116 35.432 46.4596 35.204 44.7316 34.748C43.0276 34.268 41.5756 33.596 40.3756 32.732L42.6796 28.268C43.6396 28.988 44.7436 29.552 45.9916 29.96C47.2396 30.344 48.5236 30.536 49.8436 30.536C51.3076 30.536 52.4596 30.248 53.2996 29.672C54.1396 29.096 54.5596 28.292 54.5596 27.26C54.5596 26.18 54.1156 25.364 53.2276 24.812C52.3636 24.26 50.8516 23.984 48.6916 23.984H42.2476L43.5436 9.8H58.9156V14.48H48.4036L48.0076 19.268H50.0596ZM73.6298 35.432C71.5418 35.432 69.6818 34.916 68.0498 33.884C66.4178 32.852 65.1338 31.364 64.1978 29.42C63.2858 27.452 62.8298 25.112 62.8298 22.4C62.8298 19.688 63.2858 17.36 64.1978 15.416C65.1338 13.448 66.4178 11.948 68.0498 10.916C69.6818 9.884 71.5418 9.368 73.6298 9.368C75.7178 9.368 77.5778 9.884 79.2098 10.916C80.8418 11.948 82.1138 13.448 83.0258 15.416C83.9618 17.36 84.4298 19.688 84.4298 22.4C84.4298 25.112 83.9618 27.452 83.0258 29.42C82.1138 31.364 80.8418 32.852 79.2098 33.884C77.5778 34.916 75.7178 35.432 73.6298 35.432ZM73.6298 30.5C75.1658 30.5 76.3658 29.84 77.2298 28.52C78.1178 27.2 78.5618 25.16 78.5618 22.4C78.5618 19.64 78.1178 17.6 77.2298 16.28C76.3658 14.96 75.1658 14.3 73.6298 14.3C72.1178 14.3 70.9178 14.96 70.0298 16.28C69.1658 17.6 68.7338 19.64 68.7338 22.4C68.7338 25.16 69.1658 27.2 70.0298 28.52C70.9178 29.84 72.1178 30.5 73.6298 30.5ZM98.0634 35.432C95.9754 35.432 94.1154 34.916 92.4834 33.884C90.8514 32.852 89.5674 31.364 88.6314 29.42C87.7194 27.452 87.2634 25.112 87.2634 22.4C87.2634 19.688 87.7194 17.36 88.6314 15.416C89.5674 13.448 90.8514 11.948 92.4834 10.916C94.1154 9.884 95.9754 9.368 98.0634 9.368C100.151 9.368 102.011 9.884 103.643 10.916C105.275 11.948 106.547 13.448 107.459 15.416C108.395 17.36 108.863 19.688 108.863 22.4C108.863 25.112 108.395 27.452 107.459 29.42C106.547 31.364 105.275 32.852 103.643 33.884C102.011 34.916 100.151 35.432 98.0634 35.432ZM98.0634 30.5C99.5994 30.5 100.799 29.84 101.663 28.52C102.551 27.2 102.995 25.16 102.995 22.4C102.995 19.64 102.551 17.6 101.663 16.28C100.799 14.96 99.5994 14.3 98.0634 14.3C96.5514 14.3 95.3514 14.96 94.4634 16.28C93.5994 17.6 93.1674 19.64 93.1674 22.4C93.1674 25.16 93.5994 27.2 94.4634 28.52C95.3514 29.84 96.5514 30.5 98.0634 30.5ZM129.802 24.596H123.538V30.716H118.894V24.596H112.666V20.204H118.894V14.084H123.538V20.204H129.802V24.596Z" fill="url(#paint0_linear_22715_6149)"/>
</g>
<defs>
<linearGradient id="paint0_linear_22715_6149" x1="40.7187" y1="12.32" x2="132.108" y2="12.7514" gradientUnits="userSpaceOnUse">
<stop stop-color="#F0145A"/>
<stop offset="1" stop-color="#EF8080"/>
</linearGradient>
<clipPath id="clip0_22715_6149">
<rect width="132" height="44" fill="white"/>
</clipPath>
</defs>
</symbol>

<symbol id="ellipse" width="16" height="16" viewBox="0 0 16 16" fill="none">
<circle cx="8" cy="8" r="8" fill="currentColor"/>
</symbol>

<!-- TEAM -->

<symbol id="ellipse_vector" width="32" height="32" viewBox="0 0 32 32" fill="none">
<circle cx="16" cy="16" r="16" fill="#F5F5FA"/>
<path d="M13.5 23.5L20.5 16.5L13.5 9.5" stroke="#24A3FF" stroke-width="2"/>
</symbol>


</svg>